<svg xmlns="http://www.w3.org/2000/svg" viewBox="0 0 495.2 200">
  <circle fill="#DF7900" cx="100" cy="100" r="100"/>
  <g fill="#DF7900">
    <path d="M236.1 61.3V50.1h80v11.2h-33.3v88.8h-13.3V61.3z"/>
    <path d="M337.8 159.8c-1.4 3.5-2.8 6.5-4.1 9-1.4 2.4-2.9 4.4-4.5 6-1.6 1.5-3.5 2.7-5.5 3.4s-4.3 1.1-6.9 1.1c-1.4 0-2.8-.1-4.2-.3-1.4-.2-2.8-.5-4.1-1v-11c1 .5 2.2.9 3.6 1.2s2.5.5 3.4.5c2.4 0 4.5-.6 6.1-1.8s2.9-2.8 3.7-5l4.9-12.2-28.7-72H315l21.2 59.3h.3l20.3-59.3h12.6z"/>
    <path d="M389 77.7v9.8h.3c2-4 5-6.9 9.2-8.8 4.2-1.8 8.8-2.7 13.9-2.7 5.6 0 10.5 1 14.6 3.1 4.2 2.1 7.6 4.8 10.4 8.3s4.8 7.5 6.2 12.1c1.4 4.6 2.1 9.4 2.1 14.6 0 5.1-.7 10-2 14.6-1.4 4.6-3.4 8.6-6.2 12-2.8 3.4-6.2 6.1-10.4 8.1-4.2 2-9 2.9-14.5 2.9-1.8 0-3.8-.2-6-.6-2.2-.4-4.4-1-6.5-1.8-2.2-.8-4.2-2-6.1-3.4s-3.5-3.2-4.8-5.4H389v37.3h-11.9v-100H389zm42.8 25.7c-.9-3.2-2.2-6.1-4.1-8.6-1.8-2.5-4.2-4.5-7-6-2.9-1.5-6.2-2.2-10-2.2-4 0-7.4.8-10.2 2.4-2.8 1.6-5.1 3.7-6.9 6.2-1.8 2.6-3.1 5.5-3.9 8.8s-1.2 6.6-1.2 9.9c0 3.6.4 7 1.3 10.3.8 3.3 2.2 6.2 4 8.8 1.8 2.5 4.2 4.6 7.1 6.1s6.4 2.3 10.5 2.3 7.5-.8 10.3-2.4c2.8-1.6 5-3.7 6.7-6.3s2.9-5.6 3.6-9 1.1-6.8 1.1-10.4c0-3.4-.4-6.7-1.3-9.9z"/>
    <path d="M468.3 77.7V93h.3c2.9-5.9 6.4-10.2 10.6-13s9.5-4.1 16-3.9v12.6c-4.8 0-8.8.7-12.2 2-3.4 1.3-6.1 3.2-8.1 5.7-2.1 2.5-3.6 5.6-4.5 9.2s-1.4 7.7-1.4 12.4v32.2h-11.9V77.7z"/>
  </g>
  <path fill="#fff" d="M41.9 61.2V50h80v11.2H88.5V150H75.2V61.2z"/>
  <polygon fill="#FFDBA2" points="158.1 53 158.1 50 148.1 50 145.1 50 135.1 50 135.1 53 145.1 53 145.1 147 135.1 147 135.1 150 145.1 150 148.1 150 158.1 150 158.1 147 148.1 147 148.1 53"/>
</svg>
