<svg xmlns="http://www.w3.org/2000/svg" viewBox="0 0 407 200">
<g id="logo">
  <circle fill="var(--logo-main-colour, #df7900)" cx="100" cy="100" r="100"/>
  <path fill="#fff" d="M36.6,50H116v15.1H84.8V150H67.7V65.1h-31V50z"/>
  <polygon fill="var(--logo-accent-colour, #ffc266)" points="163.4,57.1 163.4,50 150.9,50 143.9,50 131.4,50 131.4,57.1 143.9,57.1 143.9,142.9 131.4,142.9
		131.4,150 143.9,150 150.9,150 163.4,150 163.4,142.9 150.9,142.9 150.9,57.1 	"/>
  <path fill="var(--logo-main-colour, #df7900)" d="M215.3,50h18.4l45.5,73.5h0.3V50h16.6v99.7h-18.4l-45.4-73.3h-0.4v73.3h-16.6V50z"/>
  <path fill="var(--logo-main-colour, #df7900)" d="M359.3,47.7c7.4,0,14.1,1.4,20,4.2c5.9,2.8,10.9,6.6,15,11.3c4.1,4.7,7.2,10.3,9.4,16.6
		c2.2,6.3,3.3,13,3.3,20.1c0,7.2-1.1,13.9-3.3,20.3c-2.2,6.3-5.3,11.9-9.4,16.6c-4.1,4.7-9.1,8.5-15,11.2c-5.9,2.7-12.6,4.1-20,4.1
		c-7.4,0-14.1-1.4-20-4.1c-5.9-2.7-10.9-6.5-15-11.2c-4.1-4.7-7.2-10.3-9.4-16.6c-2.2-6.3-3.3-13.1-3.3-20.3
		c0-7.1,1.1-13.8,3.3-20.1c2.2-6.3,5.3-11.9,9.4-16.6s9.1-8.5,15-11.3C345.1,49.1,351.8,47.7,359.3,47.7z M359.3,61.9
		c-5.3,0-9.9,1.1-13.8,3.2c-3.9,2.1-7,5-9.4,8.6c-2.4,3.6-4.2,7.7-5.4,12.2c-1.2,4.6-1.7,9.2-1.7,14c0,4.7,0.6,9.4,1.7,14
		c1.2,4.6,3,8.6,5.4,12.2c2.4,3.6,5.6,6.4,9.4,8.6c3.9,2.1,8.5,3.2,13.8,3.2c5.3,0,9.9-1.1,13.8-3.2c3.9-2.1,7-5,9.4-8.6
		c2.4-3.6,4.2-7.7,5.4-12.2c1.2-4.6,1.7-9.2,1.7-14c0-4.7-0.6-9.4-1.7-14c-1.2-4.6-3-8.6-5.4-12.2c-2.4-3.6-5.6-6.4-9.4-8.6
		C369.2,63,364.6,61.9,359.3,61.9z"/>
</g>
</svg>
