<svg xmlns="http://www.w3.org/2000/svg" viewBox="0 0 595.3 788.8">
  <style>
    .a{fill:#131F31}
    .b{fill:#E1EAED}
    .c{fill:#6E808E}
    .d{fill:#516371}
    .e{fill:#9EABB5}
    .f{fill:#A8BFCC}
    .g{fill:#F9FAFA}
    .h{fill:#ED7823}
    .i{fill:#A3B9C7}
    .j{fill:#9BB0BD}
    .k{fill:#CFD8DD}
    .l{fill:#657682}
    .m{fill:#7F8D98}
    .n{fill:#FEFEFE}
    .o{fill:#34526C}
    .p{fill:#79D0EA}
    .q{fill:#DF7900}
    .r{fill:#FFF}
    .s{fill:#FFC266}
  </style>
  <g>
    <path class="a" d="M110,753.1c3.3-15.4,3.5-32.4,7-48c-22.9,22.5-54.8,33.3-83,47.5c-8.8,4.1-18.9,16.4-29.5,7.6c-11.4-9.6,2-24,6.2-33.8c30-82.9,41.6-83.6,101.3-143.7c-22.6-6.4-41.9-19.4-55.8-38.2c-15.4-17.6-30.4-42.3-13.6-64.2c7.7-10.5,10-16.7,15.9-28.1c2.6-5.1,10.8-15.7,10.5-20.3c-12-37.6,29-66.7,63.3-56.8c1.6-0.3,14.4-6.4,17.3-7.7c4.8-2.2-4.1-2.8-6.6-3.6c-38.3-10.5-73.6-32.5-94.5-66.5c-2.3-2.1-7.3-2.8-10.5-4.5C-2,269.1-6.7,179.2,32.5,153.1c3-6.2,5.5-24.7,8.5-33.5C100.6-53,390.2-34.7,420.2,150.9c33.2,14.7,30.8,61.8,25.8,92.2c22.8-13.3,49.1-62.4,77-59.5c5.3-2.4,18.2-16.9,24.5-21.5c32.6-24.6,63.2,11.2,38.9,41.9c-4.3,6-17.7,19-19.9,24.1c-0.7,1.7,0.9,7.9,0.1,12c8,1.3-110.8,118.7-112.5,121.6c5.4,11.4,9.7,24.1,6.9,36.7c10.2,24.6,9.1,60.6-7.6,82.5c-4.4,5.6-9.3,7.9-13.9,12.1c-3.5,3.2-5.7,7.6-10.2,10.8c-23.8,17.5-48.6-0.6-68.3-14.8c0.2,20.6,0.6,45.1-12.6,61.9c-1.4,4-1.4,10.5-2.7,15.3c-1.5,5.4-8.7,17.7-8.7,21.3c-0.1,7.2,3.8,22.8,4.9,31.2c1.3,20-1.5,15.4,10.7,32.3c4.9,10.4,4.2,16.5,4.5,27.6c0.4,13.4,2.6,24.6,3.9,38c-0.9,14.1,0.2,10.7,11,19c12.9,12.3,27.5,42.2,0.3,46.2c-24,4.3-72.4,0.8-96.5-5c-10.8-2.6-15.4-4.1-15.9-16.2c-2.3-29.8-2.4-63.1,9.1-91c-14.2-58.5,2-28.5-52-38.5l-7,41.5c7.3,24.5,8.6,81.9-2.6,104.3c-21.9,14-52.6,13-77.6,9.9C108.8,785.2,101.1,772.4,110,753.1z M142,29.1C92.6,48.6,53.6,94.9,46,148.5c0.4,1.5,3.9,1.3,5.1,1.7c38.5,14.1,49.5,126.6,11,145c-1.2,1.7,6.4,10.5,8,12.4c63.4,66.2,187.8,70.3,269,38.5c16.9-6.6,29.4-23.2,42-36c6-6.2,19.9-17.1,23.4-24.1c11.9-30.5,13.5-87.2,6.6-117.9C404.9,40.2,249.5-23,142,29.1z M30,172.1c-42.4,53.8,25.4,167.3,43.7,86.2C80.4,236.3,67.8,123.5,30,172.1z M425,195.1c0.9,21.2-1.1,52.7-4.5,74c18.4-9.7,19.2-53.5,15.5-71c0.5-10.9-4.6-26.7-14-33L425,195.1z M573,166.1c-14.1-4.5-30.9,15.9-40,23.5c-0.7,1.7,4.7,3.5,6,4.5c7.7,5.9,14.8,14.4,19.9,22.4c0.9,1.1,1.1,1.1,2.1,0.1C571.4,204.2,600.2,176.1,573,166.1z M528,200.1c-9.6-9.3-19.9-3.6-27,6c18.8,7.8,34.4,25.1,43.5,43c1.7,2.7,9.1-5.6,9.9-7.1c4.8-8.6-1.9-16.3-6.4-22.9C541.1,209,538.7,206.2,528,200.1z M503,217.1c-2.9-1.7-7.3-5.2-10.5-3.1C390,317,287,419.3,186.1,523.8c-0.2,1.1,5,7.2,6.9,5.9c7.7-6.9,25.2-31.8,35-32.6c5.3-0.4,16.2,7.1,18.9,11.6c12.4,21.9-34.1,40.5-38,61.7c-2.3,5-6.3,4.7-8.8,8.1c-4,5.5-2.9,9.2-10.1,14.9c-8.3,6.7-17.8,10.1-25.9,15.1c-5.6,3.6-13.7,14.5-19,19.5c-13.1,8.1-30.6-3-29-18c1.2-6.5,11.8-15.2,16-20.5c0.4-2-6.9-5.2-8.5-3.6L56,654.6c-0.7,1.8,5.7,3.7,7,4.5c16.8,9.8,30,24.5,38.8,41.7c0.5,0.8-0.3,1.7,1.7,1.3c95.6-95.3,189.9-193,284.3-289.2c3.6-6.1-8.3-15.2-10.8-19.8c-5.4-11-0.4-20.7,9.5-26c2.9-13.6,7.8-12.5,18.5-16.5c0.8-0.6,2-4.6,3.5-6.5c7.9-10.9,22.4-6.8,31,1.1c3.1,2.7,5.8,8.9,9.1,6c28.3-31.5,62.2-60.6,89-93.1c1.7-3.9-6.9-13.6-9.5-16.9C521.2,232.4,512.7,222.8,503,217.1z M417.3,348.4c-4.8,4.1,6.4,10.6,9.2,13.7c2.8,3,5.4,11.2,10,8.1C448.9,361.9,424.4,342.3,417.3,348.4z M399.3,363.4c-5.6,5.1,0.1,6.7,3.2,9.7c2.6,2.4,12.2,14,13.5,14.6c3.2,1.4,11.5-5,9.2-10.3C422.2,370.2,407.6,356,399.3,363.4z M314,366.1c7.1,7.1,9.7,1.9,15-3.5L314,366.1z M302,389.1c2.9-1.9,3.8-3.4,6.5-6c1.2-1.2,6.8-4.2,5.5-6c-4.8-0.1-16.6-9.7-20.5-5c-5.6,37.2-92.1,29.9-110.5,6.5c-1.3-1.5-2.5-4.6-3.5-5.5c-4.7-3.9-29.4,3.8-35.2,6.8c-5.1,1,5.4,6.3,7.1,9.3c15.4,21.6,14.4,60.1-10.5,74.3c-1.9,1-8.7,2.8-9,3.2c-0.9,1.3-3.4,15.9-2.9,17.7c8.6,4.5,16.6,10,24.1,16.2c5.5,4.6,6.7,8.4,14,11.5c1.6,0.7,10.4,3.8,11,3.6c11.3-10.6,21.4-22.5,32-33.6c18.7-20.1,40.7-38.2,58-59C280.7,414.1,291.3,400.7,302,389.1z M282,373.1c-28,4.3-62.6,3.1-91,0C204.1,389.8,275.7,398.2,282,373.1z M437,384.1c-7.3,8.6-7.5,10.3-17.8,13.2c-1.6,8.4-12,14-20.2,13.8c-3.8,34.5,68.2,8.4,48-38C445.8,374.6,436.5,381.9,437,384.1z M389.7,379.3c-1,0.3-4.4,3.6-4.6,4.5c-0.6,3.2,10.1,15.3,13.1,16.6c3.4,1.5,8.7-0.6,9.6-4C408.8,392.8,394.2,378,389.7,379.3z M79,424.1c3.7,22.8,28.9,34.8,50.4,31.9c25-3.4,28-49.4,10.1-64C113.7,373.9,74,391.2,79,424.1z M449,420.1c-14.7,16.4-42,23-60,8c-14,80.2,82.3,76.9,66-14C453.6,412.6,449.9,419.2,449,420.1z M373,483.1c-4.3-9.1,3.5-19.9,4-27.6c0.3-4-2.1-9.8-1-14.4c-3.7,3.9-15.4,12.7-16,17.4c-0.3,2.6-0.3,14.6,0.6,16.5C361.3,476.9,372.4,483.7,373,483.1z M77,446.1c-0.4-0.4,1-2.9-2-2c-1.1,3.9-15,27.1-13,29c6.3-1,14.1,2.5,18.6,5.7c9.9-3,19.2-3.6,29.3-0.7l5.1-12C100.6,465.8,86.5,456.3,77,446.1z M305,515.1c-14,15.2-36.7,30.3-47,48c73.8-4.9,99.7-8.9,91-91C351.8,459.6,309.1,512.6,305,515.1z M390.4,481.8c-3.5-3.5-5.9-8.7-8.9-12.6c-5.9,26.5,19,38,40.5,27C412,493.4,397.8,489.7,390.4,481.8z M122,481.1c0.3-0.3,0.8-6.8,1-8c-2.6,1.2-3.1,5-4,7.5C119,481.5,121.9,481.2,122,481.1z M71,483.1c-24.3-8.9-29.8,19-21,36l6.2-17.3l5.8-9.2L71,483.1z M71,498.1c-30.1,31.6,11.9,64.9,42,73c-6.2-22.8,11.5-48.2,31-58c1-0.4,6.1,1.1,5-1.5C131.3,493.6,90.7,473.4,71,498.1z M205,540.1c1.2,1,3.4,11.5,5.5,10c5.5-6,30.3-25.6,28.5-35.5c-0.4-2.2-1.6-2-2-2.5c-2.4-3.5-5.4-6.3-10-4.5c-9.2,8-17.1,17.6-25.6,26.5C199.4,537.5,204.2,538.8,205,540.1z M126,547.1c-5,12-4.9,22,6.7,29.8c17.7,12,30.2-6.7,38.3-19.8c5-8.1,9.5-10.8,6-22C164.6,509.6,133.5,526.6,126,547.1z M191,558.1c14.3,25.9,13.2-12.6-4-16C188.1,548.9,182.1,555.1,191,558.1z M269,573.1c-7.6,0.5-15.4-0.8-23,0.5l-37,37l-1,2.5c43.5,24.8,115.5-4.6,127-54C314.2,567.6,291.4,571.7,269,573.1z M180.9,563.3c-0.6-0.4-2.3-0.4-2.7-0.1c-0.5,0.4-4.5,9.9-6.1,11.4c10,20.7,21.7,7.1,14.8-3.8C186.3,570,181.3,563.6,180.9,563.3z M172.8,593.9c2.4-4.1-5.3-8.5-7.5-11.7c-3.8-1.1-8.9,5.8-13.3,5.9c-1.6,2.1,9.5,9.5,11.7,9.8C165.3,598.2,172.3,594.8,172.8,593.9z M155,604.1c-0.2-0.3-5.1-2.8-6.5-4.1c-1.4-1.2-6.5-7.2-7.9-6.9c-5.3,6.4-24.4,21.7-9.4,28.2c9,3.9,15.8-11.9,23.1-15.2C155.4,606.3,155.2,604.3,155,604.1z M328,603.1c-0.3-1.7,0.2-3.7,0-5.5c-2.1-2-2.2,1.5-3.9,3c-14.9,13.4-33.7,23.6-53.1,28.5l8,34.6c6.6-0.6,13.5-1.4,20,0.4c1.8-17.2,14.5-32.1,33-30C333.1,633,328.6,607.1,328,603.1z M199.9,666c1.9-1.2,6.1-33.7,7.2-38.4c0.8-2.1-5.3-6.5-6.6-6.5c-2.4,0-17.3,17-20.4,19.7c3,4.6,6.7,5.8,9.5,11.3C193.2,659.2,190.6,668.6,199.9,666z M344,662.1c-6.9-29.4-34-21.2-36.1,5.5C311.2,702.6,353.6,699.6,344,662.1z M184,667.1c-0.6-7-3.9-16.7-11.4-18.8l-25.8,26.3C150.5,706.2,187.3,696.4,184,667.1z M25,720.1c-2.8,2.8,3.6,4.7,5,6c4.2,2.5,6.4,11.5,11.3,11.9c0,0,52.3-27.8,52.3-27.8c8.5-5.5-36.4-49.1-44.5-47C42.3,682.5,32.3,700.9,25,720.1z M299,676.1c0.2-6.2-17.5-2.4-20.5,1c-5.3,5.5-6.8,23.6-7.4,31.6c-0.8,9.3-1.9,23-1.1,32c1,10.2,13.1,16.6,22,10.9c15.9-16.5,33.1-31.8,58.1-27.4l-3-29C327.5,710.4,306.4,696.6,299,676.1z M192,682.1c-5.1,17.4-22,25.7-39,19c-6.1-3.1-11.1-12.3-14.5-18c-13.5,11-10.7,37.5-15.5,52.5c-0.9,4,8-3.1,9.3-3.7c25.9-12.4,53.7-1,70.7,20.2c1.2-23.4,6.9-53.2-3.9-74.6C192.5,672.4,193.3,678.2,192,682.1z M28.9,743c2.1-3.5-8.5-11.9-9.8-10.8l-8,19C12.6,752.5,28.4,743.9,28.9,743z M326,737.1c-22.1,10.6-29,35.5-55,22c-0.1,1.8,0.5,4.4,2,5.4c1.6,1.1,17.3,3.7,20.7,4.3c25.5,3.7,56.3,8.3,81.1,0.7c3.9-2.6,1-5.4,0.1-8.4C368.9,741.1,345.9,726.8,326,737.1z M119,762.1c-13.9,23.2,58.9,15.9,69,12.5c18.1-4.9,12-10.7,2-21.5C171.7,729.8,127.8,731,119,762.1z"/>
    <path class="b" d="M179,117.1c-101.7,11-96.4,189.3-3,212c0,3.3,0,6.7,0,10c-44.4-7.9-85.4-39.2-89-86.6c-0.3-1.9,1.1-4-2-3.4c2.3-27.1-3.5-88.6-34-99c10.4-50.4,46.3-89.1,93-109C164.3,60.9,173.9,89.7,179,117.1z M118.8,65.3c-11.7,1.6-35.1,24.5-31.3,36.8C98,122.3,146.7,67.2,118.8,65.3z"/>
    <path class="c" d="M528,241.1c-34.6,30.4-68.8,62.3-98,98c-11.3-4.9-21.1,0.8-25,11.5c-10.8,4-15.6,2.9-18.5,16.5c-9.8,5.2-14.9,15.1-9.5,26c-45.3,41.4-86.9,90.4-131,134c2.6-6.5,4.8-11.6,0.9-18.4c-2.7-4.6-13.5-12.1-18.9-11.6l275-280C512.7,222.8,521.2,232.4,528,241.1z"/>
    <path class="d" d="M377,393.1c2.9,5.3,18.7,17.2,7.5,21.9c-91.8,97.4-186.9,191.9-281,287.1c-2,0.4-1.2-0.4-1.7-1.3c-4.2-7.2-7.3-13.2-12.8-19.7c21.8-12.3,38-36.1,56-53c5.3-4.9,13.5-15.8,19-19.5c8.1-5,17.6-8.4,25.9-15.1c7.1-5.7,6-9.5,10.1-14.9c2.5-3.4,6.5-3.2,8.8-8.1c3-6.4,0.4-5.6,5.7-11.3C269.5,505.2,321.3,445.3,377,393.1z"/>
    <path class="b" d="M302,389.1c-10.7,11.6-21.3,25-34,34c-68.3,3.1-69.3-8.7-65,66c-7.1,9.5-16.7,18-25,26.6c-0.6,0.3-9.4-2.9-11-3.6c-3.5-9.7-13.2-15.8-16.8-25.7c20.5-25,16.8-59.2,12.8-88.8c-0.1-1.8-0.5-5.7,1.7-6.5C206.4,403.6,262.7,413,302,389.1z"/>
    <path class="b" d="M332,57.1c34.8,14.5,58.8,49.9,70.9,84.6c2.3,7.1,4.2,22.4,8.1,26.4c3,3.1,4.3,47.6,4,54.5c-0.5,14.6-4.3,50.9-10.6,63.4c-3.5,7-17.4,17.9-23.4,24.1c-2.3-0.4-3,0.8-4.5,2c-8.5,6.6-17.2,12.5-27.5,16c0.4-2.6,1.6-5.1,1-8c66.2-35,71.5-195.8-17-205c1.8-16.5,3.5-35.4,0-52c3,0.6,3.1-2.6,0-2C332.8,59.5,332.3,58.4,332,57.1z"/>
    <path class="e" d="M503,217.1l-275,280c-9.8,0.8-27.3,25.6-35,32.6c-1.9,1.3-7.1-4.8-6.9-5.9C287,419.3,390,317,492.5,214C495.7,211.9,500.1,215.4,503,217.1z"/>
    <path class="f" d="M85,249.1c3.2-0.6,1.7,1.6,2,3.4c3.6,47.4,44.6,78.7,89,86.6c0,6.7-0.5,13.3-1,20c-42.7-7.8-91.2-24.2-113-64C77.9,290.5,83.5,263.6,85,249.1z"/>
    <path class="d" d="M528,241.1c17,19.8,8.4,17.2-6,34.5c-23.9,25.7-49.8,49.6-73.5,75.5c-3.7,3.9-9-9.4-18.6-12C459.2,303.4,493.4,271.5,528,241.1z"/>
    <path class="f" d="M341,332.1c-0.6,4.7-0.8,9.4-2,14c-45.4,21.4-108,21.5-157,14l2-19C236.2,349.6,290.4,347.9,341,332.1z"/>
    <path class="b" d="M269,573.1c22.4-1.5,45.2-5.6,66-14c-6,35.1-42.9,55-76.4,50.9c-3.2-0.4-14.4-3.2-14.7-6.4C244.1,595.7,266,580.9,269,573.1z"/>
    <path class="b" d="M137,391.1c19.7,39.2-32.7,63.4-58,33C73.9,393.1,111.7,373.6,137,391.1z M103.7,391.3c-4.7,1-15,10.8-10.3,14.8c4.4,3.7,12.8,0.8,17.3-1.8C121.6,397.9,115.2,389,103.7,391.3z"/>
    <path class="b" d="M71,498.1c6.3,1.1,8.2,3.8,15.4,2.9c21.8-2.8,31.8-2.6,52,7.2c1.7,0.8,6,2.5,5.6,4.9c-10.6,3.6-28.2,25.1-31,36c-2.2,0.2-3.9-0.9-5.7-1.8c-14.6-8.4-40.4-23-42.3-41.2C67.2,502.1,68,501.4,71,498.1z"/>
    <path class="c" d="M116,610.1c-1.6,15,15.9,26.1,29,18c-18,16.9-34.2,40.7-56,53c-7.3-8.8-16.3-16-26-22L116,610.1z"/>
    <path class="g" d="M233.5,24.1c-16,1.6-64.5,2.4-79.5,15c-4.6-1.5-8.3-6.8-12-10c59.1-26,118.7-24.4,176,4c1.6,3.8,2,8.2,3,12c-0.6,2-3,0-4-0.5C290.3,34.2,270.4,23.5,233.5,24.1z"/>
    <path class="h" d="M31,269.1c-16.8-24.7-19.5-58.8-7-86C50.4,169.3,58.2,270.3,31,269.1z"/>
    <path class="i" d="M161,432.1c2.3-17.5-2.6-40.7-18-50.5c-0.8-1.5,0.6-1.4,1.3-1.7c5.8-2.9,30.5-10.7,35.2-6.8c1,0.8,2.2,4,3.5,5.5c18.4,23.3,104.7,30.7,110.5-6.5c3.9-4.7,15.7,4.9,20.5,5c-32.7,40.2-105.1,26.8-149.4,14.1c-5.1,5,2,24.5,1.4,32.9C164,427.1,166.2,431.8,161,432.1z"/>
    <path class="b" d="M299,676.1c7.4,20.5,28.5,34.3,48,19l3,29c-21.6-3.7-35.8,6.7-51,20c-1.5-2.3-3.8-2.6-5.2-5.3C290.7,723.9,288.5,690.2,299,676.1z"/>
    <path class="b" d="M337,545.1c-15.4-2.9-37.2,6.3-52,5c-1.7-1.4,0.8-1.9,1.3-2.3c22.4-21.4,45.3-40.7,58.7-69.2l3,6.5l1-13C350.5,490.8,353.7,532.3,337,545.1z"/>
    <path class="j" d="M269,573.1c-3,7.7-24.9,22.7-25,30.5c14.1,13.2,41.5,5.1,58-0.5c-26.3,17.3-65.5,27.9-94,10l1-2.5l37-37C253.6,572.3,261.4,573.6,269,573.1z"/>
    <path class="i" d="M299,744.1c-8,13.4-25.9,12.9-29-3.5c-0.9-9,0.2-22.7,1.1-32c0.7-7.9,2.2-26,7.4-31.6c3-3.4,20.8-7.1,20.5-1c-10.5,14-8.3,47.9-5.2,62.7C295.2,741.6,297.5,741.8,299,744.1z"/>
    <path class="b" d="M190,753.1c-2.7,25.6-54.4,13-71,9C127.8,731,171.7,729.8,190,753.1z"/>
    <path class="b" d="M190,739.1c-16.2-13.2-38.6-15.8-57.7-7.2c-1.3,0.6-10.2,7.6-9.3,3.7c0.2-0.8,1-1.3,1-1.5l29-33c17,6.7,33.9-1.6,39-19c1.7,1,1,3.8,1,5.5C193.2,704.5,194.5,723.1,190,739.1z"/>
    <path class="f" d="M79,424.1c25.3,30.4,77.7,6.2,58-33c21.5,11.1,17.7,62-7.6,64.9C107.9,459,82.8,446.9,79,424.1z"/>
    <path class="b" d="M449,420.1c6.8-2.3-2.6,50.6-7.2,53.3c-2,3.3-5.6,7.4-9.5,7.4c-4.3,2.6-7.8,5.3-13.3,4.2v-49C430.7,435,441,428.3,449,420.1z"/>
    <path class="g" d="M135,33.1c2.9,2.8,6.1,5.1,9,8C97.3,61,61.4,99.7,51,150.1c-1.2-0.4-4.7-0.1-5.1-1.7C53.4,99.1,88.4,50.8,135,33.1z"/>
    <path class="b" d="M75,232.1c-3.2-5.8-13.3,3.2-19,2c0.2-13.1-5.8-48.3-15-58c1.7-7,8.3-8.5,12-14C70.4,173,74.7,213.5,75,232.1z"/>
    <path class="f" d="M419,436.1v49c-27.7-3.1-36.7-33.2-30-57C398.2,435.5,407.4,437.2,419,436.1z"/>
    <path class="k" d="M260,432.1c-16.5,16.8-33.5,33.2-50,50c2.5-34-13.6-55.3,34.5-50C249.3,432,255.4,429.4,260,432.1z"/>
    <path class="i" d="M113,549.1c-1.8,7-0.8,14.9,0,22c-26.4-8.4-65.2-32.5-48-65c1.9,18.1,27.7,32.8,42.3,41.2C109.2,548.2,110.8,549.3,113,549.1z"/>
    <path class="i" d="M375,761.1c15.3,20.7-72.5,9.7-81.2,7.7c-3.4-0.6-19.1-3.2-20.7-4.3c-1.6-1-2.2-3.6-2-5.4c26,13.5,32.9-11.4,55-22c-1.8,7.6-12.4,10.6-3.5,19c11.4,10.9,33.9,7.5,47.8,4.6C372.1,760.4,373.3,759.7,375,761.1z"/>
    <path class="g" d="M411,168.1c-3.9-4-5.7-19.3-8.1-26.4C390.9,107,366.8,71.6,332,57.1c-1.3-6.8-3.4-13.3-5-20C375.5,63.2,407.9,112.7,411,168.1z"/>
    <path class="j" d="M305,515.1c5.1,0.1-1.8,4.1,11,3c-10.3,11.2-18.2,19.5-29.7,29.7c-0.4,0.4-3,0.9-1.3,2.3c14.9,1.3,36.6-7.9,52-5c-18.5,15.7-55.7,15.7-79,18C268.4,545.4,291,530.3,305,515.1z"/>
    <path class="b" d="M375,761.1c-1.7-1.4-3-0.7-4.7-0.3c-13.9,2.8-36.4,6.3-47.8-4.6c-8.9-8.5,1.7-11.4,3.5-19C345.9,726.8,369,741.1,375,761.1z"/>
    <path class="j" d="M300,658.1c-0.5,1.8-0.7,4.1-1,6c-6.5-1.8-13.4-1-20-0.4l-8-34.6c19.4-4.9,38.2-15.1,53.1-28.5c1.7-1.6,1.8-5,3.9-3c0.2,1.8-0.3,3.8,0,5.5c-6.5,11.8-22.8,17-28,29c-4.8-0.1-0.6,5.2-6,4c-0.8,0.8,1.7,4.6,2,6C297.3,647.6,296.9,653.2,300,658.1z"/>
    <path class="f" d="M56,234.1c5.7,1.2,15.8-7.8,19-2c2.1,22.7-6.5,75.7-38,45C55.1,273.4,54.2,248.5,56,234.1z"/>
    <path class="l" d="M82,689.1l-49,40c-0.7-0.8-2.2-2.3-3-3c-1.2-4.7,29.1-52.2,31-57C69.9,675.4,75.2,681.1,82,689.1z"/>
    <path class="j" d="M167,512.1c-7.3-3.1-8.4-6.9-14-11.5c-7.5-6.2-15.5-11.6-24.1-16.2c-0.5-1.8,2-16.4,2.9-17.7c15.1-2.7,27.7-19.3,29.1-34.6c5.1-0.3,3-5,5-8c0.9,22.3-1.2,44.4-15.8,62.3C153.8,496.3,163.5,502.4,167,512.1z"/>
    <path class="b" d="M177,535.1c-3.2,13.3-11.5,28.2-26,31c-0.6-3.8-4.8-4.7-6.5-7c-1.3-1.8-1.2-4.1-3-6c-0.5-0.5-9-6.3-9.6-6.5c-2.3-0.6-3.7,0.9-5.9,0.5C133.5,526.6,164.6,509.6,177,535.1z M153.8,527.4c-8.1,1.4-13.5,10.6-3.3,11.8c4.8,0.6,20.1,1.1,16.8-6.7C164.9,527,158.9,526.5,153.8,527.4z"/>
    <path class="d" d="M33,729.1l49-40c3,4.3,16.6,15.9,11.5,21c0,0-52.3,27.8-52.3,27.8C37.8,738.4,35.2,731.5,33,729.1z"/>
    <path class="l" d="M41,176.1c14.6,17.5,25.9,94.1-4,101c-3.7-3.7-3.4-4.3-6-8c27.1,1.2,19.4-99.8-7-86c2.3-5.1,2.3-6,6-11C33.6,171.2,38.4,174.2,41,176.1z"/>
    <path class="e" d="M116,610.1l-53,49c-1.3-0.8-7.7-2.7-7-4.5l67.5-68.6c1.6-1.7,9,1.6,8.5,3.6C127.8,594.9,117.3,603.7,116,610.1z"/>
    <path class="i" d="M119,762.1c16.6,4,68.3,16.6,71-9c10,10.8,16.2,16.6-2,21.5C178,778,105.1,785.3,119,762.1z"/>
    <path class="l" d="M282,373.1c-6.3,25-77.8,16.7-91,0C219.5,376.2,253.9,377.5,282,373.1z"/>
    <path class="c" d="M268,423.1c-0.9,4-5.3,6.3-8,9c-4.6-2.7-10.8-0.1-15.5,0c-48.2-5.4-32,16-34.5,50c-2.1,2.1-5,4.9-7,7C198.7,414.3,199.8,426.2,268,423.1z"/>
    <path class="j" d="M192,682.1c1.3-4,0.5-9.7,7.1-4.6c10.8,21.5,5.1,51.2,3.9,74.6c-5-3.6-8.2-9.1-13-13c4.4-16.1,3.2-34.7,3-51.5C193,685.9,193.7,683.2,192,682.1z"/>
    <path class="i" d="M184,667.1l-3.5-5c-4,5-21.3,14.8-21.6,20.5c-0.6,10.5,13.7,6.1,18.1,1l7-11.5c-1.8,27.9-34.3,30.2-37.1,2.5l25.8-26.3C180.1,650.4,183.4,660.1,184,667.1z"/>
    <path class="b" d="M328,603.1c0.6,4,5.1,29.9,4,31c-16.4-1.7-27.7,9-32,24c-3.1-4.9-2.7-10.6-4-16c0.6,0,1.7,0.2,1.9-0.1C300.2,619,316.2,621.4,328,603.1z"/>
    <path class="d" d="M573,166.1c27.2,10-1.6,38.1-12,50.5c-1,0.9-1.2,0.9-2.1-0.1c-5.1-8-12.2-16.5-19.9-22.4c0.3-0.3,0.6-0.7,1-1c1.4,2.3,10.3,3.7,12.7,3.7c6.8,0,21.5-15.5,21.3-22.7C574,171.9,572.2,168.8,573,166.1z"/>
    <path class="b" d="M326,643.1c10,0.7,16.5,10,18,19c-2.2,6.7-0.5,18.1-10.5,18.1c-14.5,0-22-18.4-13.3-30.4C322.2,646.9,325.4,646.4,326,643.1z"/>
    <path class="c" d="M142,29.1c3.7,3.2,7.4,8.5,12,10c14.9,17.5,31.7,56.2,32,79c-2.3-0.7-4.5-1.1-7-1c-5.6-31.5-18-64-44-84C136.3,32.5,138.7,30.6,142,29.1z"/>
    <path class="g" d="M71,498.1c22.2-33.7,95.6,18.6,73,15c0.3-2.4-3.9-4.1-5.6-4.9c-20.2-9.8-30.2-10-52-7.2C79.2,502,77.4,499.2,71,498.1z"/>
    <path class="e" d="M199.9,666c-9.3,2.6-6.7-6.8-10.3-13.9c-2.8-5.5-6.5-6.8-9.5-11.3c3.1-2.7,18.1-19.7,20.4-19.7c1.3,0,7.4,4.4,6.6,6.5C206,632.3,201.8,664.8,199.9,666z"/>
    <path class="f" d="M326,643.1c-0.7,3.3-3.8,3.8-5.8,6.7c-8.6,12.1-1.2,30.4,13.3,30.4c10,0,8.3-11.4,10.5-18.1c9.6,37.5-32.9,40.5-36.1,5.5C307.9,658.9,316.1,643.1,326,643.1z"/>
    <path class="j" d="M153,701.1l-29,33c2.7-15.9,1.9-39.7,14.5-51C141.9,688.8,146.9,698,153,701.1z"/>
    <path class="f" d="M433,397.1c-3.9,5.2-9.1,9.9-7.1,17.4c0.4,1.4,9.3,1.6,11.1,2.6c-10.1,10.7-41.3,17.1-38-6c8.2,0.2,18.6-5.4,20.2-13.8c0.7-0.7,6.9-2,8.8-3.2L433,397.1z"/>
    <path class="i" d="M128,547.1c0.2,24.8,28,24.2,40,8c2.4,0,3.5-0.7,3,2c-8.2,13.1-20.7,31.8-38.3,19.8c-11.5-7.8-11.6-17.8-6.7-29.8C126.7,547,127.4,547.2,128,547.1z"/>
    <path class="c" d="M327,37.1c3.6,13.3,7.2,27.9,8,41.5c0,0,0,20,0,20c-2.2,4.7-0.8,11.3-2,16.5c-2-0.1-5.1,1.2-7,2c2.7-28.9,0.8-56.1-8-84C320.8,34.5,323.4,35.1,327,37.1z"/>
    <path class="c" d="M548,219.1c-5.4,3.1-8.6,11.1-15,12c-5.2-6.2-15.3-15.4-22-20c5-5.4,10.9-7.4,17-11C538.7,206.2,541.1,209,548,219.1z"/>
    <path class="b" d="M437,417.1c-1.7-1-10.7-1.2-11.1-2.6c-4.3-13.1,17.1-19.3,11.1-30.4c-0.6-2.2,8.8-9.5,10-11C452.9,390.9,451.7,405,437,417.1z"/>
    <path class="e" d="M61,669.1l-30,52l-6-1c7.3-19.3,17.3-37.6,24-57C53.7,663.2,57.4,666.6,61,669.1z"/>
    <path class="f" d="M349,472.1l-1,13l-3-6.5c-7.8,13.3-16.2,31.1-29,39.5c-12.8,1.1-5.9-2.9-11-3C309,512.8,351.9,459.5,349,472.1z"/>
    <path class="f" d="M77,446.1c9.5,10.2,23.6,19.7,38,20l-5.1,12c-8.1-2.3-15.7-2.2-23.9-1c-0.6-3.6,2.5-6.8,1.8-10.3C85.7,461.1,73.8,453.9,77,446.1z"/>
    <path class="d" d="M155,604.1c0.2,0.2,0.4,2.2-0.6,2.1c-7.3,3.2-14.1,19.1-23.1,15.2c-15.1-6.5,4.1-21.8,9.4-28.2c1.4-0.3,6.5,5.7,7.9,6.9C149.9,601.3,154.8,603.8,155,604.1z"/>
    <path class="b" d="M86,477.1c-8.8,5.4-8.1-5.3-24-4c-2-1.9,11.9-25,13-29c2.9-0.9,1.6,1.6,2,2c-3.2,7.8,8.7,15,10.8,20.7C88.5,470.3,85.4,473.5,86,477.1z"/>
    <path class="d" d="M237,512.1c10.8,6.7-22.7,33.6-26.5,38c-2.1,1.6-4.3-9-5.5-10l24.5-24L237,512.1z"/>
    <path class="e" d="M373,483.1c-0.6,0.6-11.7-6.3-12.5-8c-0.9-1.9-0.9-14-0.6-16.5c0.6-4.7,12.3-13.6,16-17.4c-1.1,4.5,1.2,10.4,1,14.4C376.5,463.3,368.7,474,373,483.1z"/>
    <path class="b" d="M425,195.1c0.6-4.3,3.1-5.3,7.4-3.8c1.5,0.5,1.2,3.5,3.6,2.8c0.1,1.3,0.1,2.7,0,4c0,0.8-3.1,3.5,1,3c0.4,10.8,1.2,17.9,0,29l-12,1c0.1-4.6-0.2-9.4,0-14c3,0.6,1.9-1.5,2-3.5c0.1-2.3,0.1-4.8,0-7.1c-0.1-1.9,1-4-2-3.5C425.1,200.6,424.7,197.5,425,195.1z"/>
    <path class="m" d="M399.3,363.4c8.3-7.5,22.9,6.8,25.9,14c2.2,5.2-6,11.6-9.2,10.3c-1.3-0.5-11-12.1-13.5-14.6C399.4,370.1,393.7,368.5,399.3,363.4z"/>
    <path class="c" d="M390.4,481.8c7.4,8,21.7,11.6,31.6,14.3c-21.5,11-46.4-0.4-40.5-27C384.4,473.1,386.9,478.3,390.4,481.8z"/>
    <path class="d" d="M533,231.1c6.4-0.9,9.6-8.9,15-12c4.5,6.6,11.2,14.4,6.4,22.9c-0.8,1.5-8.2,9.8-9.9,7.1C541.4,243,537.4,236.3,533,231.1z"/>
    <path class="m" d="M71,483.1l-9,9.5l-5.8,9.2L50,519.1C41.2,502.1,46.8,474.2,71,483.1z"/>
    <path class="f" d="M437,230.1c-1.5,13.9-3.3,31.4-16.5,39l4.5-38L437,230.1z"/>
    <path class="e" d="M573,166.1c-0.8,2.7,1,5.8,1,8c-13.4-0.5-25.6,11.4-35,20c-1.2-1-6.7-2.7-6-4.5C542.2,182,558.9,161.6,573,166.1z"/>
    <path class="b" d="M184,672.1l-7,11.5c-4.4,5.1-18.7,9.5-18.1-1c0.3-5.7,17.6-15.5,21.6-20.5l3.5,5C184.2,668.6,184.1,670.6,184,672.1z"/>
    <path class="g" d="M449,420.1c0.9-0.9,4.6-7.5,6-6c4.1,22.6,0.1,68.7-30,71l7.3-4.2c3.9,0,7.5-4.2,9.5-7.4C446.4,470.8,455.8,417.7,449,420.1z"/>
    <path class="m" d="M237,512.1l-7.5,4l-24.5,24c-0.8-1.3-5.6-2.7-3.5-6c8.4-8.9,16.4-18.5,25.6-26.5C231.6,505.8,234.6,508.6,237,512.1z"/>
    <path class="m" d="M417.3,348.4c7.1-6,31.6,13.5,19.3,21.8c-4.7,3.1-7.3-5.1-10-8.1C423.6,359,412.5,352.5,417.3,348.4z"/>
    <path class="m" d="M389.7,379.3c4.5-1.2,19.1,13.5,18.1,17.1c-0.9,3.4-6.2,5.4-9.6,4c-3-1.3-13.7-13.4-13.1-16.6C385.4,382.9,388.8,379.5,389.7,379.3z"/>
    <path class="m" d="M180.9,563.3c0.4,0.2,5.5,6.7,6,7.5c6.8,10.9-4.9,24.5-14.8,3.8c1.6-1.5,5.6-11,6.1-11.4C178.6,562.9,180.3,563,180.9,563.3z"/>
    <path class="i" d="M381,310.1c-10.2,10.5-21.6,24.6-34,32c0.7-4.7,1.3-9.3,2-14c10.3-3.5,18.9-9.5,27.5-16C378,310.9,378.7,309.7,381,310.1z"/>
    <path class="e" d="M528,200.1c-6.1,3.6-12,5.6-17,11c-2.7-1.8-6.9-3.9-10-5C508.1,196.5,518.4,190.9,528,200.1z"/>
    <path class="c" d="M183,331.1c0.1,3.3-0.7,6.9,1,10l-2,19c-2.4-0.4-4.5-0.6-7-1c0.9-10,1.1-20,1-30C178.1,329.7,181,330.6,183,331.1z"/>
    <path class="g" d="M436,194.1c-2.5,0.7-2.1-2.3-3.6-2.8c-4.3-1.4-6.8-0.5-7.4,3.8l-3-30C430.3,170.4,435.4,184.7,436,194.1z"/>
    <path class="c" d="M172.8,593.9c-0.5,0.8-7.5,4.3-9.1,4c-2.2-0.3-13.4-7.7-11.7-9.8c4.4,0,9.5-7,13.3-5.9C167.5,585.5,175.2,589.8,172.8,593.9z"/>
    <path class="g" d="M53,162.1c-3.7,5.5-10.3,7-12,14c-2.7-1.9-7.4-4.9-11-4C34.1,164.7,44.4,156.4,53,162.1z"/>
    <path class="d" d="M28.9,743c-0.5,0.9-16.3,9.6-17.9,8.1l8-19C20.4,731.1,30.9,739.4,28.9,743z"/>
    <path class="c" d="M350,320.1c-0.1,7.5-2.3,14.6-3,22c-3.2,1.9-4.7,2.4-8,4c1.2-7.8,2.9-15,3-23C344.4,322.2,348,321.2,350,320.1z"/>
    <path class="e" d="M200,556.1l-9,2c-8.9-3-2.9-9.2-4-16C192.6,542.8,198.5,550.8,200,556.1z"/>
    <path class="k" d="M171,557.1c0.5-2.7-0.6-2-3-2c4.1-5.1,7.3-13.7,9-20C180.6,546.3,176.1,549,171,557.1z"/>
    <path class="m" d="M200,556.1c0.8,2.7,2.5,10.3-1.6,11c-2.5,0.4-6.1-7.5-7.4-9L200,556.1z"/>
    <path class="k" d="M433,397.1l-5-3c2-1.4,6.9-7.7,9-10C440.7,390.1,435.8,393.5,433,397.1z"/>
    <path class="b" d="M314,366.1l15-3.5C323.7,368,321.1,373.3,314,366.1z"/>
    <path class="g" d="M425,203.1c3-0.6,1.9,1.5,2,3.5c0.1,2.3,0.1,4.8,0,7.1c-0.1,1.9,1,4-2,3.5C425.2,212.5,424.9,207.7,425,203.1z"/>
    <path class="m" d="M31,721.1l-1,5c-1.4-1.3-7.8-3.2-5-6L31,721.1z"/>
    <path class="f" d="M122,481.1c-0.1,0.1-3,0.4-3-0.5c0.9-2.5,1.4-6.3,4-7.5C122.8,474.3,122.3,480.8,122,481.1z"/>
    <path class="g" d="M437,201.1c-4.1,0.5-1-2.2-1-3C437.3,198.6,437,200,437,201.1z"/>
    <path class="c" d="M146,627.1c0.3-0.3,0.7-0.7,1-1L146,627.1z"/>
    <path class="a" d="M333,115.1c88.5,9.2,83.2,170,17,205c-46.4,19.8-118.1,22.9-167,11c-101.6-14.8-108.1-216.1,3-213c24,40.5,116.5,44.8,139,0C326.8,116.2,330.5,115.3,333,115.1z M179.8,126.3c-78.7,2.1-81.6,137.1-34.8,177.3c40.7,34.8,158.8,31.9,204.1,7c55.3-32,61.4-177.1-15.4-186.4C308.2,170.7,208.1,167.9,179.8,126.3z"/>
    <path class="n" d="M118.8,65.3c27.9,1.9-20.8,57-31.3,36.8C83.7,89.9,107.1,66.9,118.8,65.3z"/>
    <path class="g" d="M333,61.1c3.1-0.6,3,2.6,0,2C332.9,62.5,333.1,61.7,333,61.1z"/>
    <path class="b" d="M341,332.1c-50.6,15.7-104.9,17.4-157,9c-1.7-3.1-0.9-6.7-1-10c45.5,11.2,115.2,8.9,159-8C342.8,326.4,341.4,329.4,341,332.1z"/>
    <path class="n" d="M103.7,391.3c11.4-2.3,17.8,6.6,7,13c-4.4,2.6-12.9,5.6-17.3,1.8C88.8,402.1,99,392.3,103.7,391.3z"/>
    <path class="b" d="M287.6,33.1c10.1,2.7,22.8,8.5,29.4,11.6c1,0.5,3.4,2.5,4,0.5c7.3,24.2,6.8,47.1,5,72c-36.8,30.8-102.3,29.9-139-1c-4.5-22.7-17.2-60-33-77c-0.1-3.1,7-4.2,9.5-5C204.3,22,253.8,20.8,287.6,33.1z"/>
    <path class="b" d="M286,35.1c-0.8,0-1.1-0.2-1-1C285.4,34.4,285.7,34.8,286,35.1z"/>
    <path class="f" d="M300,632.1c-0.6,2-1.8,9.5-2.1,9.9c-0.2,0.3-1.4,0-1.9,0.1c-0.3-1.4-2.8-5.2-2-6c0.2-0.2,2,0.4,2.7-0.2C297.6,635.2,296.8,631.6,300,632.1z"/>
    <path class="k" d="M151,566.1c-14.5,2.9-21.9-4.6-23-19c1.4-0.3,2.3-1.1,3.9-0.5c0.5,0.2,9.1,6,9.6,6.5c1.8,1.9,1.7,4.2,3,6C146.3,561.5,150.4,562.3,151,566.1z"/>
    <path class="n" d="M153.8,527.4c5.1-0.9,11.2-0.4,13.5,5c3.4,7.8-12,7.3-16.8,6.7C140.3,537.9,145.7,528.7,153.8,527.4z"/>
    <path class="l" d="M574,174.1c0.1,7.2-14.5,22.7-21.3,22.7c-2.4,0-11.2-1.4-12.7-3.7C549.2,184.9,561.1,173.6,574,174.1z"/>
    <path class="f" d="M325,118.1c-22.5,44.8-115,40.5-139,0c-0.1-0.4,1.1-1.6,1-2C223.5,146.9,287.8,147.6,325,118.1z"/>
    <path class="o" d="M179.8,126.3c28.3,41.6,128.3,44.4,153.9-2.1c76.9,9.3,70.6,154.4,15.4,186.4c-45.3,24.9-163.4,27.7-204.1-7C98.3,263.5,101.1,128.4,179.8,126.3z M165.8,144.4c-8.4,1-23.3,13.2-21.8,22.2c1.9,11.9,25.7-3.5,29.5-9.5C177.9,150.1,174.4,143.3,165.8,144.4z M141.9,174.3c-1.6-2.5-10-0.5-7.4,4.8C136.9,184,144.6,178.6,141.9,174.3z M332.8,191.3c-26.8,2.1-26.2,62.1,3.7,58.8c14.4-1.6,18.6-22.8,17.5-34.5C353,205.4,344.8,190.4,332.8,191.3z M179.7,194.3c-25,5.1-22.4,60.3,4.7,58.8C213.2,251.6,209,188.4,179.7,194.3z M231.7,267.2c-6.5,2.2,1,10.4,3.8,12.9c11.8,10.1,29.2,11.6,43.2,5.2c4.5-2.1,17.1-9.9,12.4-15.8c-4.2-5.2-9.8,2.6-12.8,4.4c-10.7,6.7-24.8,6.8-35.3-0.4C239.7,271.2,237,265.5,231.7,267.2z"/>
    <path class="p" d="M179.7,194.3c29.2-5.9,33.4,57.3,4.7,58.8C157.3,254.6,154.8,199.4,179.7,194.3z"/>
    <path class="p" d="M332.8,191.3c12-1,20.2,14,21.2,24.3c1.2,11.7-3,32.9-17.5,34.5C306.6,253.4,306,193.5,332.8,191.3z"/>
    <path class="p" d="M231.7,267.2c5.3-1.8,8,4,11.4,6.3c10.5,7.2,24.6,7.1,35.3,0.4c2.9-1.8,8.6-9.6,12.8-4.4c4.7,5.9-7.9,13.7-12.4,15.8c-13.9,6.4-31.4,4.9-43.2-5.2C232.7,277.7,225.2,269.4,231.7,267.2z"/>
    <path class="m" d="M165.8,144.4c8.6-1,12.1,5.7,7.7,12.7c-3.8,6-27.5,21.4-29.5,9.5C142.5,157.6,157.4,145.4,165.8,144.4z"/>
    <path class="m" d="M141.9,174.3c2.8,4.4-5,9.8-7.4,4.8C131.9,173.8,140.3,171.8,141.9,174.3z"/>
  </g>
  <g>
    <path class="q" d="M249.2,24.1c57.2-2.5,61.2,89.8,1.6,90.7C193.2,112.6,185.9,26.6,249.2,24.1z"/>
    <path class="r" d="M219.7,45.3H256v6.9h-14.2V91h-7.8V52.2h-14.2L219.7,45.3L219.7,45.3z"/>
    <path class="s" d="M277.6,48.6v-3.2c-4.3,0-10.4,0-14.6,0v3.2h5.7v39.2H263V91c4.3,0,10.4,0,14.6,0v-3.2h-5.7V48.6H277.6z"/>
  </g>
</svg>
