<svg xmlns="http://www.w3.org/2000/svg" viewBox="0 80 1024 944">
<style>
  .a{fill:#132336}
  .b{fill:#C9B69E}
  .c{fill:#F1E8D1}
  .d{fill:#EFE8D3}
  .e{fill:#597080}
  .f{fill:#36414D}
  .g{fill:#9FC4D7}
  .h{fill:#A6B8C5}
  .i{fill:#355067}
  .j{fill:#4F6070}
  .k{fill:#DAE4E6}
  .l{fill:#98ADBA}
  .m{fill:#E0EBEC}
  .n{fill:#FEFEFE}
  .o{fill:#DF7900}
  .p{fill:#74D1EE}
  .q{fill:#FFF}
  .r{fill:#FFC266}
</style>
<g>
  <g>
    <path class="a" d="M0,582c0,0,247.5,41.1,247.5,41.1c41.6-14,94-67.1,126.5-8.1c1-5.2,5.2-9.2,9.1-12.4c2.2-1.8,7.7-3.6,7.9-6.1
      c-4.6-28.6-18-56.7-17.1-85.9c-0.6-5.6-2.9-8-1.4-14.7c2.8-13.3,22.4-15.1,28.1-3c2,4.3,2,10.4,3.7,14.3
      c14.5,20.5,14.2,51.1,22.8,74.8c86.5-36,43.1,23.5,99.6-59c-3.9-23,7.1-46,28.4-55.5c-36-13.8-63.3-46.9-73.2-83.3
      c-37.3-10.8-40.6-89.4-21.2-116.1c2.7-3.5,11.8-9.6,12.2-10.3c26.2-186,322-225.8,391-55c4.3,10.7,6.8,28.4,11,37
      c32.6,25.6,35.6,97.8,7.2,127.8c-4.1,3.9-12.1,6.6-15.1,9.9c-14.8,34.8-44.3,65.9-80,81c10.4,5.5,21.6,11,28.7,20.4
      c39.2-11.1,76,29.2,63.4,67.8c8.2,21.8,16.8,49.6,27.5,70.3c7.6,14.8,15.8,18.1,13.4,38.4c-4.2,13.2-4.3,13.1-2.9,27.1
      c-0.4,6.7-3.1,13.2-3.9,19.8c13.6,8.3,22.7,20.4,27.4,35.7l5.3,1.7L1024,753v9l-81-13c0.5,11.5-2,21.8-9,31
      c-64.6,70.1-148.4,133-220.3,200.5c-28.7,21.4-67.2,2.8-98.7-2.6c-35.4-8.6-69.9-17.7-100.1-35.9c-14.6,7-33.1,0.4-48.4-1.6
      c-23.9-10.8-418.2-86.8-424.3-114.2L42,823c-24.8-28.5-25.2-82.7,14-98.5c58.5-32.4,120.9-60.1,179-93.5L0,591V582z"/>
    <g>
      <g>
        <path class="b" d="M496,700c-1.8,7.5-14.5,8.7-18.4,13.1c-2.7,3-6.2,13.1-10.6,18.4c-2.4,3-13.1,13.9-16,14.5l5.1-40.5
          L454,693C468.2,694,482,697.6,496,700z"/>
        <g>
          <path class="c" d="M919,720c-20.8,32.9-53.5,58.2-81.2,85.4c-38.6,33.4-75.1,71.7-118.8,98.6c-9.9-15.3-30.5-27.2-49-26
            c57.2-50.2,115.9-99.1,173-149.5C864.5,705.8,894.1,693.3,919,720z"/>
          <path class="b" d="M919,720c21.7,22.5,17.6,50.8-7,68.5c-60.2,55-123,107.6-182.5,163.5c-2.2,0.4-1.5-1-1.5-2.5
            c0.1-18.4,1.8-28.8-9-45.5C789.9,847.8,859.4,788.3,919,720z"/>
          <path class="b" d="M687,890c-7.6,9.8-24.6,15.5-28,27.5c-0.2,10,8.8,1.4,12.3,0.3c21.7-7.2,32,29.2,11.7,36.7
            C630,963.5,627.3,869.1,687,890z"/>
          <path class="b" d="M649,954c29,24.2,46.6,4.8,68-15.5c1-0.8,1.3-1.9,3-1.5c-2.1,55.8-51,43.3-88,31L649,954z"/>
          <path class="b" d="M703,939c1.2-15.1-8.3-26.6-22-31.5c0-1,13.2-12.2,14.6-12.3c6.1-0.5,22,23.2,22.1,29.5
            C717.9,927.6,705.4,936.2,703,939z"/>
        </g>
        <g>
          <path class="d" d="M370,684c7.1,18.2,31,27.1,49,21c3.1,13.3,14.5,27.9,23,38l-1.1,1.8c-9.4-2.1-27.3-5.4-5.4-0.1
            c4.2,0.4,10.9,3.9,14.4,1.3c0.3,0,0.7,0.1,1,0l1.7-3.2c10-8.4,17.8-18.8,23.3-31.1c6.9-3.2,12.8-7,17.7-11.5
            c88.8,13.4,177.6,30.1,266.2,45.8c-12.2,14.7-1.1,30.3,17,27L646,885.5c-19.5,18.6-16.3,51.1,3,68.5c3.4,3.5-14.4,13.9-17,14
            c-42.6-10.8-71.2-12.7-109.4-35.9l7.2-11.2c-8.3,5.4-16.7,11.7-26.2,13C371.8,911.6,240.9,872.1,111,843l-0.2-2.2
            c85.7-52.6,171.4-105.2,257.1-157.9L370,684z"/>
          <g>
            <path class="e" d="M442,743c2.9,2.7,4,3.2,8,3c1.2,6.5-26.1-2.8-30-3.5c-3.6-0.8-25.2-4.4-26-5.5c-1-1.3,1.7-3.6,3.3-2.9
              L442,743z"/>
            <path class="b" d="M514,931c-0.7-3.3,17.2-14.4,19-13c-1,6.3-7.1,10.1-9,16C519.8,931.9,519.4,930.7,514,931z"/>
            <path class="f" d="M394,884c-72.4-14.4-147.5-31.5-218.2-52.3c-3.2-1-10.3-1.8-6.8-6.3c29.9-21.9,67.1-48.6,99.1-66.9
              c-2.2-15,220.8,46.3,224.9,44.4c0.6,2.8-1.4,2.2-3.5,2c-71.1-13.5-141.5-32-212.1-47.9L193,812
              c73.6,20.1,149.7,36.8,224.4,54.7c26.8-18.7,50.6-44.3,77.6-61.8c2,2.2-10.5,12.2-12.5,14c-4,4.3-107.6,91.3-72.8,51.5
              c-73.3-17-146.5-34.7-219.5-53.1c0,0-14,10.1-14,10.1c-8.4,0.9-4.6,1.6,11.3,2.1c20.9,5.6,191.9,45.1,207.6,52.4
              C397.4,883.4,396.7,884.6,394,884z"/>
            <path class="f" d="M660,781c-0.7,0.3-1-0.2-2,1c-7.1,0.8-49.1-11.6-52-10c2.7,4.5-6.3,5.7-6,10c5-0.4,7.5,1,11,4
              c-6.2,5.9-22.2-4.6-31.2-3.7c-3,2-10.3,7.2-3.6,7.5l23.3,5c2,0.7,1.8,3,0.4,4.2c-5.2,0.3-33.1-4.7-35.1-7.6
              c0.3-4,8.1-11.4,11.3-12.7c6.2-2.6,13.4,2.3,19.2,1.2c2.4-0.4,5.2-4.3,7.1-6c0.6-0.6,4.6-1.6,1.9-3c-2.7-1.4-8.6-1.3-12.4-3
              C584,761.6,661.2,782.5,660,781z"/>
            <path class="f" d="M299,746c0.7-2.4,3.3-2.2,5.2-1.7C471.2,778.7,439.2,782.9,299,746z"/>
            <path class="g" d="M711,822c-0.5,0.2-1.4-0.1-2,0l-34-7c2.5-5.3,7.7-9.1,12-13c4.3,0.3,31,5.3,32.5,7.7
              C718.2,814.1,715.4,818.2,711,822z"/>
            <path class="f" d="M751,769c0.7,3.1-2.3,2-4.4,1.9c-36.8-5-92.1-19.3-129.6-25.9l0-3L751,769z"/>
            <path class="h" d="M611,786l1.2,0.6c-2.7,2.9-8.5,13.4-12.2,12.4c0.5-2.4-1.1-2.2-2.8-2.7c-3.2-1-28.2-5.4-28.2-6.8
              c2.8-2.1,7.3-8.8,10.6-9.2C586.9,779.4,602.5,787.3,611,786z"/>
            <path class="f" d="M555,909c-35.3-5.8-70.3-14.8-105-23.5l-1-3.5l103.7,23.8L555,909z"/>
            <path class="f" d="M563,900l-104-23c-0.6-4,0.8-3.3,4.2-2.7c30.3,4.9,67.2,15,97.3,22.7C562.1,897.6,563.4,898,563,900z"/>
            <path class="f" d="M521,850c-2.8,0.2-16.5-2.6-17-4.6c4.8-9.3,25.4-25,33.7-31.2c7.9-2.3,24.2,4.8,32.8,5.8
              c-1-8.7,8.5-0.1,8.6,2.5c0,3.6-10.4,3.5-13,3.5l2-4c-8.2,0.6-22.5-7.3-29.7-4.2c-9.5,6.7-21.6,18.3-30.2,26.7
              C511,845.8,521.5,845.5,521,850z"/>
            <path class="f" d="M440,754c1.5,1.4-0.1,1.8-1.5,2c-27.4-2.4-54.2-13.1-81.5-17l0-3L440,754z"/>
            <path class="f" d="M558,753c2.7,6.9-14.9-0.4-18.2-0.3c-18.1-3.6-36.1-7.9-54.1-11.7l-0.7-3L558,753z"/>
            <path class="f" d="M566,746c7.8,7.4-73.7-10.2-73-13.5c1.3-2,2.2-1.3,4-1.1C519.3,733.6,543.7,742.5,566,746z"/>
            <path class="f" d="M571,889c0.6,0.8-0.5,2.6-1.7,2.9c-20-4.9-42.3-7.7-61.8-14c-1.8-0.6-4.2-0.2-3.6-2.9L571,889z"/>
            <path class="f" d="M427,764c-3.2,1-61.9-10.4-66-15.5c1-2.3,6.2-0.5,8.2-0.2c15,2.5,35.1,7.2,49.8,11.2
              C421.6,760.2,427.1,760.4,427,764z"/>
            <path class="f" d="M620.5,760c6.5,2.6,68.4,12,68.4,15.5c0,2.2-6.1,0.5-7.3,0.3c-12.6-1.9-25.3-4.5-37.7-7.3
              C641.4,767.3,613.7,763.7,620.5,760z"/>
            <path class="f" d="M661,781c0.8-0.2,1.8-1.2,3-0.6l66,15.1c0.7,2.3-2.1,1.5-3.4,1.4c-21.5-2.6-44.3-9.7-65.6-13.9
              C661.1,782.4,660.9,781.7,661,781z"/>
            <path class="f" d="M690,821c1.9,2-17,21.6-19.9,22.5c-5.5,1.8-14.2-2.1-20-2.6l-1.5,4c-10.8-8.7-3.5-9.8,6.5-10l-2,4
              c4.9-1,11.9,3.1,16.3,1.8c1.9-0.6,13.7-14.9,17.2-17.8C687.6,822.1,688.1,820.6,690,821z"/>
            <path class="f" d="M574,741l-61.3-12c-1.2,0.1-0.8-2.9-0.7-3c2.1-2.2,52.1,11.5,59.5,12L574,741z"/>
            <path class="e" d="M334,721c2.9-1.2,67.5,11,43.7,12.8c-12.9-1.9-27.9-8-41.2-9.8L334,721z"/>
            <path class="f" d="M693,767c0.1,0.1,0.1,2.9,0,3c-0.3,0.3-7.8-1.1-9.2-1.3c-6.2-1.8-39-4.5-38.8-10.7
              C650.7,759.2,691.5,765.1,693,767z"/>
            <path class="i" d="M688,802c6.2-3,25.9,5.1,34,6c0.9,5.3-6.7,12.5-11,14c-1.3-3.5,9.8-10.2,6-12.5
              C712.1,807.8,693.7,805.3,688,802z"/>
            <path class="f" d="M350,745c3,6.2-31.9-4-34.8-4.8c-1.6-0.6-2.7,0.5-2.2-2.3C317.8,737.8,348.2,743.2,350,745z"/>
            <path class="i" d="M592,768c-1.7-0.8-3.4-1.2-2.8-4.4c0.3-1.4,18.4-16.4,20.9-18c0.9-0.6,2.9-2.6,3.9-1.1
              c-5.8,8.2-14.9,14.1-22.6,20.5c-0.5,0.7,0.6,0.9,0.6,1C592.1,766.6,591.9,767.4,592,768z"/>
            <path class="i" d="M709,822c-4.6,1.3-31.8-3.6-34-7c7.6-2.5,21.2,3.7,29.5,5C706.2,820.4,708,820.2,709,822z"/>
            <path class="f" d="M754,774c-2.9,3.9-16.4,22.4-21,21c-0.4-1.9,1.1-2.4,2-3.5C739.3,787.2,748.1,773.8,754,774z"/>
            <path class="j" d="M611,786c7.4,0-6.4,12.8-9,13C598,795.2,613.8,788.3,611,786z"/>
            <path class="i" d="M687,802c-1.8,4.2-6.7,9.2-11,11C677.2,808.8,682.4,801.9,687,802z"/>
            <path class="f" d="M712,795c0.3,4-3,7.7-7,8C704,802.1,710.5,793.4,712,795z"/>
            <path class="h" d="M597,799c0.3,0,0.7,0,1,0H597z"/>
            <g>
              <path class="i" d="M660,781c1.8-0.3,3.9,1.3,1,2c-0.6,4.3-6.5,5.7-7,10l17,4c1.5,2.2-9.7,14.6-12.5,15
                c-4.3,0.7-19.7-4.4-21.5-3.5c-1.4,0.7-3.7,5.9-5.9,7l4,2.5l-10,3l21,6c0.9,1.3-5.1,8.6-6.5,10c-0.8,0.8-8,7.2-8.6,7.4
                c-5.2,2.4-22-4-28.4-4.5c-1.5,3.2-4.2,4.1-6.6,6.5c0.1,0.8,7.8-0.1,5,2.5c-0.4,0.4-10.3,2.2-12,2c3.1,0.9,44.3,10.7,46,12
                l-4,1l-1.1,1.8l-93.2-21.7c-4.9,3.8-9.6,7.8-13.7,12.3l94.3,22.4l0.7,2.2c-0.2,0.9,0.5,3.1-0.5,3
                c-34.1-8.4-69.3-14.2-102.5-25.5c0-3.5,5.3-6,6-8.5c-0.8-0.3-0.8-0.7,0-1c6.7-1.5,8.5-9.1,16.4-8.9L588,851
                c0.7-3.5-0.4-9.3,4-8l1,3c0.3-3.7,4.3-4.3,6-7c-22.8-4-30.2-4.3-7.9-21.4c8.1-4.2,22.1,3,30.9,3.4c-0.5-4.2,1-12,4.5-6l7.5-8
                c-2.2-0.1-14.4-2.3-14.9-3.1c-2.5-3.6,10-14.3,13.5-14.9c14.9-0.5,13.5,8.6,24.5-4.5c0.8-0.8,0.7-2.2,1-2.5
                C657.8,781,658.5,780.7,660,781z"/>
              <path class="g" d="M622,841c-14-2.5-27.9-7-42-9c1.1-0.9,13.2-13.5,14.5-13c16.4,1.8,32.1,7.9,48.4,9
                C637.1,834.2,632,842.8,622,841z"/>
              <path class="g" d="M667,798c1.6,1.4-8.2,8.4-8.2,10.8c-3.4,2-30.7-7.2-36.8-6.8c2-2.3,9.1-10.8,11.4-10.9
                C644.5,793.9,655.6,797,667,798z"/>
              <path class="k" d="M632,839c-0.9,5.4-6.2,2.3-10,2L632,839z"/>
            </g>
            <g>
              <path class="i" d="M697,783c-1.9-2.7,10-14.5,12.5-15c7.5-0.2,24.7,3.9,30.5,6.5c-2.4,3.3-9.8,13.8-13.5,14.5
                C724.5,789.4,697.9,784.2,697,783z"/>
              <path class="g" d="M709.6,771.1c1.6-0.3,5.4,4.7,5.3,5.4c-0.1,2.1-10.7,1.9-12.5,3.5C702,777.9,708.6,771.3,709.6,771.1z"/>
              <polygon class="g" points="734,777 727.4,784.9 721,779.5"/>
              <path class="g" d="M722,785c-3.7,0.6-14.4-2.9-18-4C710.6,781.5,719.2,776.2,722,785z"/>
              <polygon class="g" points="730,774 719.6,776.8 715,772"/>
            </g>
            <path class="f" d="M370,830c11.5-2.5,34.4,6.4,46.4,9.1c2.3,0.7,11.8,2.5,10.1,5.9c-1.5,3-13,11-16.7,10.8
              c-15.6-1.7-39.2-9.5-54.8-13.8c-1-2.5,4-6.1,4-3c4.8-2.1,46.5,11,52,11.9c2.9-1.2,6-3.1,7.5-5.9l-47.8-10.7L370,832
              C367.3,831.6,367.6,831,370,830z"/>
            <path class="f" d="M438,834c2.8,2.8-6.1,1.9-7.2,1.7c-2.1,0.1-65.2-13-46.5-14.5C384.2,821.2,438,834,438,834z"/>
            <path class="f" d="M446,826l-2.3,2.8c-15.5-4.1-31.6-6.6-46.9-11.1c-1.8-0.5-7.5-1.1-6.8-3.7L446,826z"/>
            <path class="i" d="M457,821c-16.2-3.4-34.4-6.3-50.2-11.3c-2.3-0.7-5.7-1.2-6.8-3.7C405.9,805.4,458,815.2,457,821z"/>
            <path class="e" d="M464,810c3.4,7.6-23.6-2.3-27.2-2.3c-4.3-1.7-25.6-3.7-24.8-8.7L464,810z"/>
            <path class="f" d="M333,789c-1.5-1.4,0.1-1.8,1.5-2c-0.3-1.5,62.5,11.5,43.1,12.9C377.6,799.9,333,789,333,789z"/>
            <path class="f" d="M390,792c0.4,2.6-0.3,2-2.4,1.9c-4.8-1-46.2-7.9-45.6-13.9L390,792z"/>
            <path class="f" d="M315.9,782.1c3,4.6-5.4,2-7.9,1.4c-5.8-2.2-37.7-5.9-37-11.5C276.4,772.3,314.7,780.1,315.9,782.1z"/>
            <path class="f" d="M279,768c-2.6-2.6,3.5-1.8,4.2-1.7c8.5,0.9,21.5,4.6,30,7c1.8,0.5,11.7,2.9,11.8,4.2
              C323.7,782,280.4,768.6,279,768z"/>
            <path class="i" d="M370,830c1.6,6.9-8.4,9.7-14,9C358.5,834.5,365.2,830.9,370,830z"/>
            <path class="e" d="M359,839l11-7l49.3,11.2c4.7,2.3-5.7,9.8-8.5,9.6C393.5,848.3,376,844.2,359,839z"/>
            <g>
              <path class="g" d="M395,882c-74.5-17.4-148.7-36.1-223-54l17.6-12.7c74.4,18,148.5,37.3,223.4,53.7
                c0.6,2.3-0.6,1.7-1.3,2.3c-2.8,2.5-5.9,5.4-8.7,7.7C399,882.2,400,883.2,395,882z"/>
              <g>
                <path class="i" d="M405,881c-3,2.8-7.6,7.5-11,3l1-2c1.8-0.9,3.6-2,5.4-3.4l2.6,0.4L405,881z"/>
                <path class="i" d="M395.7,874.7c-5.8,6.9-17.8-3.1-7.7-6.2C393.3,866.8,400.1,869.5,395.7,874.7z"/>
                <path class="i" d="M371.3,866.3c2.2-2.3,9.3-3.3,10.6,0.4C385.1,876.5,364.2,874,371.3,866.3z"/>
                <path class="l" d="M213,828c-0.6,1.2,0.1,2.9-2.4,3c-1.6,0-20.9-4.1-21.6-5c-0.7-0.8,0.1-3.3,1.7-3.8
                  c4.4-1.4,4.6,1.6,5.3,1.8C201.6,824.4,208.4,825.4,213,828z"/>
                <path class="m" d="M196,824c5.4-2.3,12.4,1.9,18,2c0.5,1.6-0.9,1.8-1,2C207.5,827.3,201.2,825.8,196,824z"/>
                <g>
                  <path class="f" d="M360.7,861.2c7.7-1.6,10.2,6.2,3.3,8.4C354.7,872.5,353.3,862.7,360.7,861.2z"/>
                  <path class="h" d="M365,864c2.3,1.9-5,3.7-6,3C358,864,364,863.2,365,864z"/>
                </g>
              </g>
            </g>
            <g>
              <path class="g" d="M631,864c-0.3,2.7,1.1,1.6,2,2c1.2,1.9-11.7,16.5-14,13c-1.2,0.9-0.7,1-1,2l-99-23.5
                c5.4-5.4,10.7-11.2,17.3-15.3L631,864z"/>
              <path class="i" d="M633,866c0.5,0.2,1.4-0.1,2,0c1.7,1-17.8,24.2-16,13c3.6-2.5,3.2-2.9,6-5.5
                C627.6,870.9,631.2,869.4,633,866z"/>
              <path class="i" d="M561,854l0,4c7.9-2.4,10.5,0.6,17.7,2.7c2.5,0.1,11.8-2.9,10.3,3.3c-0.5,0.6-4.9-0.9-6.4-0.9
                c-8.3-0.1-9.1-2.1-15.3-2.9c-6.6,0.5-6,2.8-9.9-3.3c-3.8-0.8-8.8,6.2-8.3-2.9C553.2,855.8,556.7,853.6,561,854z"/>
              <path class="i" d="M593.7,862.2c8-2.2-2.6,12.4-5.7,4.3C588.1,866.2,593.3,862.3,593.7,862.2z"/>
              <path class="i" d="M605,864c-2.4,4.1-8.5,13.7-11,5C599.4,870.2,600,863.6,605,864z"/>
            </g>
            <g>
              <path class="f" d="M544.6,761.4l3.4,3.1c-12,10.3-24.7,21.9-38.6,29.5L436,778c-2.1-7.8,30.4-24.8,36.5-30.9
                C496.8,750.2,520.8,755.8,544.6,761.4z"/>
              <g>
                <path class="g" d="M541,766c-10.6,8-20.9,16.8-30.5,26c-1,0-0.2-1.5-0.5-2l-2.5-0.2c-0.9-0.6-13.4-15.2-13.8-16.2
                  c-0.4-1,0.1-3.5,0.9-4.2c15-1.7,30-3.3,45-4.9L541,766z"/>
                <path class="g" d="M445,777c1.3-4.4,37.9-6.3,44.7-7.6c1.3-0.1,16.8,17.7,16.8,19c0.1,2.4-1.7,2.8-3.5,1.6
                  C490.3,785,459,778.7,445,777z"/>
                <path class="g" d="M474,751c2.8,0.3,17.4,17.4,14.6,19.1c-15.3,1.6-30.6,3.4-45.8,5.2L442,774
                  C448.5,769.1,467,750.9,474,751z"/>
                <path class="g" d="M535,762c3.4,6.7-36.5,6.3-42.7,7.9c-2-0.5-17.3-17.1-14.3-18.9C496.7,752.9,516.3,758.7,535,762z"/>
                <path class="i" d="M478,751c2.7,3.2,11.5,16.4,14.5,17c13.9-2.3,29.6-0.7,42.5-6c3,0.5,5.9,1.3,9,1c0.7,2.8-1.4,1.8-3,3
                  l-45,4.5l-0.5,2.5c4.2,5,11.5,11.5,14.5,17c-2.7,5-5.6,0.6-7,0l2-1.5l-15.7-17.3c-16.5,1.6-33.1,4-49.3,5.8
                  c-0.8-4.1,1.5-2.6,2-3l46-5l-14-18C475.1,750.4,476.7,750,478,751z"/>
              </g>
            </g>
            <g>
              <path class="j" d="M335,836c0.3,0.2,0.6,0.8,1,1c-1.8,1-0.9,2.3-5.5,2.1c-3.9-0.2-4.2-2-4.5-2.1
                C325.7,833,334.9,831.5,335,836z"/>
              <g>
                <path class="i" d="M326,837c-34.3-6.5-72.7-15-106.2-25.3c-9.3-2.2,2.5-7.9,5.9-10.5c5.1-3.6,33.1-23,36.8-23.3
                  c0,0,112.5,27.1,112.5,27.1c5.5,2.6-45.2,38.7-40,31l-0.5-2.1l29.3-23.8l-58.6,0.8c4,2.5,5.3,4.9,3.9,7.1c1.8-2.6,6,0,5,3
                  c1.1,2,0.4,2.3-2,1c-2.8,3.9-7.8-2.5-3-4c-0.6,3.3-4.4,1.1-6.4-0.5c-6.5-6.9-15.3-9.4-26.4-7.4l-29,1.5L239,810l-1.7,1.5
                  L251,816c4.4-1.5,9.4-1.1,14.8,1.2c18.9,6.1,38,11.5,57.2,16.2l3,2.5C326.9,836.3,326.9,836.6,326,837z"/>
                <path class="g" d="M309,818c-1.1-3.5-6.8-5.1-9-9l70-1l-35,28c-26.6,0.3-56.8-15.8-84-20c0,0-11.5-4-11.5-4
                  c-0.7-0.3-0.8-1.2-0.5-2c14.8-0.1,42.6-3.5,55.5-1C299.5,810.3,303.8,818.2,309,818c-0.3,3.1,0,2.9,3,4
                  c1.7-0.1,3.3,0.9,4.8,2.9l0.2-0.9l-1-1c-1.2,0.8-2.6-0.7-2-2C311.9,819.5,311.3,819.2,309,818z"/>
                <path class="g" d="M266,784c0.6-0.2,0.5-0.6,0-1c31.1,2.5,63.5,16.2,95,21.5l-64.5,1.5c-2.6-0.6-11.8-10-13-10
                  c-1.7,0-2.3,3.7,1,4l6.5,6l-69,2l37.3-26.3l2.1-0.6L266,784z"/>
                <path class="j" d="M266,783c6.2,1.3,10.1,8.8,16,11.5l-1.5,2.5L266,784V783z"/>
                <path class="k" d="M239,810l12,6l-24-5C226.5,808.7,237,810.5,239,810z"/>
              </g>
              <path class="j" d="M316,823c0.8,1.6,11.7,6.4,6.5,8c-4.1-2.6-6.5-6.1-10.5-9l2-1C315,821.7,315.5,822.6,316,823z"/>
              <path class="i" d="M317,824c-0.4-0.3-0.7-0.8-1-1L317,824z"/>
            </g>
            <g>
              <path class="i" d="M588,890c3-1,8.1-0.5,4,2c3.2,2.6,5.5,6.5,7.1,11.5c7.5-2.3,15.1-3.8,22.9-4.5c-3.9-1.4-1.4-3.1,2-2
                c1.1,0.4,2.5,0.4,4,1c3.8,1.5-0.6,8.4-3,5c-7.3,2.9-14.9,5.3-22.6,7.1c1.3,3.8,2.8,7.6,5.1,10.8L607,923c1.8-0.1,0,3.2-2,3
                c-2.9,2.3-5.7-0.5-2-2c-3.5-2.8-6.3-6.7-8.3-11.7c-7.8,2-15.7,3.6-23.7,4.7c-2.1,2.9-7.7-0.1-4.5-4.2
                c1.5-1.3,12.5-16.9,11.5-9.8c2.4,1.1,1.7,3.4-2.2,6.9c1.7-0.1,15-3.4,15.8-4.1c0.5-0.4-3.2-9.2-3.8-9.7
                c-2.3,3.2-4.6,4.5-6.9,3.9c-1.6,0.4-1.6-0.6,0-3c0.2-0.2,0.2-1.7,1-2.5C584.2,892.2,584.9,891.1,588,890z"/>
              <path class="f" d="M571,907c-0.3,4.9-5.7,4.4-4,10c11.8-1.5,26,0.7,36,7c0.4,0.7-1,2.6,2,2c-0.3,0.1-1.1,2.8-3.2,1.8
                c-4.9-2.1-37-8.2-37.7-11.4C563.5,914.1,569.3,908.9,571,907z"/>
              <path class="f" d="M624,897c-2.9-0.8-1.7,1.7-2,2c-7.9-0.3-24.1-0.5-30-7c0.4-2.8-1.9-2.1-4-2
                C599.6,887.1,613,893.9,624,897z"/>
              <path class="f" d="M628,898c9.9,0.5-19.1,26.7-22,28c0.7-0.8,0.6-2.3,1-3c-4.2-3.2,14.3-19.8,18-20
                C626.7,902,631.1,903.6,628,898z"/>
              <path class="f" d="M581,900c2.9,1.9-0.4,5-3,3l-2-1c1.7-1.8,3.3-3.3,5-5V900z"/>
              <path class="g" d="M625,903c-2,1.1-16.7,17.7-18,20c-2.6-1-7.7-14.3-7-15C608.5,907.5,616.4,902.5,625,903z"/>
              <path class="g" d="M603,924c-10.8-1.9-21.2-5.5-32-7c7.2-3.9,16.4-4.8,24.3-6.9C596.7,910.5,601.8,921.7,603,924z"/>
              <path class="g" d="M581,900l8-8c5.1,18.8,13.3,13.8-19,21c1.9-3.6,7.3-5.9,8-10C578.8,902.2,580.6,901.6,581,900z"/>
              <path class="g" d="M622,899c-2.5,2.8-18.9,4.7-23.4,6.8c-1.6-0.4-5.6-11.4-6.6-13.8L622,899z"/>
            </g>
          </g>
        </g>
        <g>
          <path class="c" d="M365,620c-77.9,52.9-161.4,101-247,140c-6.8-18-22.9-30.6-41-36l244-126.5C339.8,592.6,357,603,365,620z"/>
          <path class="b" d="M370,684L111,843c-30.1-7.4-53.7-6.7-69.8-38.7c-19.9-35.4,4-89.2,47.8-64.8c0.8,1.7-1.2,1.5-2,2
            c-8.1,4.4-18.5,9-25.9,14.1c-36.2,24.8,3.4,84.4,47.2,63.2l246.3-144.8c1.8-0.7,12.1,0.6,13.4,1.4
            C370.3,676.9,369.4,682.4,370,684z"/>
          <path class="b" d="M113,781c5.5,52.5-66.5,35.7-55.5-8c6.7-18.1,30.8-11.5,28.5,8.5c-0.4,3.7-5.9,10.7-0.3,12.3
            C91.1,795.4,107.4,783.4,113,781z"/>
          <path class="b" d="M95,781c1.6-10.5-4.8-21.1-14.4-24.9c-0.9-0.7-1-1.7-0.6-2.1c0.6-0.7,15.6-8,16.5-8
            c5,0.1,15.3,20.1,15.3,25.4C111.5,772.7,95.7,781.7,95,781z"/>
          <path class="b" d="M365,620c9,16.4-3.9,14.7-2.2,38.8L120.5,801c3.8-14.7,3.1-26.9-2.5-41C202.9,717.9,284.4,669.5,365,620z"/>
        </g>
      </g>
      <g>
        <g>
          <path class="h" d="M588,497c1.1-2.7,6.5-14.8,8.2-15.8c1.6-0.9,21.4,1.6,23.1,2.7c21.6,41.9,118.4,28.6,135.4-12.9
            c0.8-0.5,16.9-5.8,17.8-5.8c6.9,0,29.2,11.7,32.5,18.9c-45.3,3.2-49.2,123.6,5,98c5,19.6,0.7,55.2-9.5,72
            c-53.3,40.7-155.3,35.2-211.4,1.4c-8.2-6.3-6.8-8.9-9.1-17.4c0.3-0.9,0.6-0.9,1,0l2-0.5c30.2,25.5,80,31.4,118.7,29
            c48.2-3,62.4-15.2,60.9-63c-3.2-25.9-4.8-51.9-4.6-78.1c1-5.2,1.9-11.7-5.5-9.5C710,532.7,634.9,536.3,601,501
            c-2.3-0.1-4.4-1-6.3-2.9C591.5,499,589.2,498.6,588,497z"/>
          <path class="k" d="M532,682c83.6,11.5,166.6,29.1,250,42c-2.1,3.3-6.3,4.9-9,7.5c-2.4,2.2-3.4,6.8-7.3,6.5
            c-83.4-15.4-167.1-29.5-250.7-44C512.1,690,529.1,682.2,532,682z"/>
          <path class="n" d="M585,681l-76-13c3.6-3.7,8.1-6,11.5-10c2.1-2.4,4.1-7.1,5.8-8.7c2.4-2.2,8.2-4.4,11.2-7.3
            c6.5-6.2,7.3-12.9,11.3-19.7c4.5-7.6,10.4-14.3,14.2-22.3c1.4,0.1,1.8,4.5,1.9,5.6c1.2,13.8,1.3,34.5,8.3,46.7
            C587,668.6,583.3,660.6,585,681z"/>
          <path class="j" d="M601,674c58.1,23.6,128.9,25.5,187,1c2,20.1-31.3,27.7-46.5,32c-44.2-6.2-88.5-14.1-132.5-22
            C605.2,683.7,599.2,677.9,601,674z"/>
          <path class="j" d="M739,476c-25.8,25.6-77.6,32.3-107,9.5C668.3,485.4,703.6,484.6,739,476z"/>
          <path class="n" d="M601,501c0.3,1.8-1.2,2.9-4.5,3.1c-12.7,40.1-14.9,87.1-12.4,130.3c0,3.1-1.1,4-4.1,3.6
            c-10-37.7-6.8-104.5,8-141C597.6,495,595.5,496.3,601,501z"/>
          <path class="h" d="M528,540c5.8-16.3,1.1,11.5,37,21.7c-0.8,28.6-3.1,22.6-18.6,45.3c-1.7-6.8-5.9-16.7-10.5-22l-0.4-3
            c3.9-5.3,7.3-10.9,10.1-16.8c-4.5-3.5-9.2-8.1-14.3-13.7l0.7-2.5C528.6,550.1,526.9,542.8,528,540z"/>
          <path class="h" d="M892,650c16,12.9,16.8,29,11,48c-8.3-1.7-19.5-3.2-28-2L892,650z"/>
          <path class="m" d="M536,585c-5.7-6.6-19.1-14.8-28-15c-0.8-3.3,2.9-5.2,4-7l2.2,0.1c2.4,5.5,7.3,1.1,14.7-13.1l3.1-1
            c3.6,5.4,11.1,11.1,15.9,15.6C545.3,572.1,540.2,578.4,536,585z"/>
          <path class="l" d="M532,682l-17,12c-14-2.4-27.9-5.2-42-7c-0.3-0.2,0.5-1.2,1-1.5C502.1,671.6,503.2,675.8,532,682z"/>
          <path class="h" d="M570,521c-2.1,5.3-1.2,28-5.5,29c-13.6-0.5-26.4-19.5-27.5-32C549.3,526,556.4,529.1,570,521z"/>
          <path class="m" d="M797,691c-5.9,2.1,3.8-18,1-22.3c21.9-11.5,19.3-37,24-57.7l9.9,25.3C816.8,651.6,803,670.3,797,691z"/>
          <path class="k" d="M854,706c0.6,2.1-5.9,6.1-6.6,6.8c-14.2-7.2-33.2-9-46.3,2.2C798.5,691.3,844.7,691.7,854,706z"/>
          <path class="k" d="M839,719l-27,24c1.6-8.7,0.5-14.4-4-22C818,714.5,828.1,715,839,719z"/>
          <path class="j" d="M875,630c-2.3-0.6-4.7-0.8-7-1.5c22.2-14.7,43.7-0.2,42,25.5c-4.6-5.5-9-10.9-15-15
            C891.8,629.4,884.4,627.4,875,630z"/>
          <path class="h" d="M791,716l-29-5c4.9,0.7,25.7-13.4,27.4-13C794.3,699.4,789.8,712.4,791,716z"/>
          <path class="n" d="M532,549c-4.5,5.1-13.8,29-20,14c5-8.2,10.4-15.2,16-23C529.8,542.2,530.7,547.1,532,549z"/>
          <path class="l" d="M789,755c-3.2,2.2-5.7,5.5-9.3,7.2c-7.1,3.2-17.3,2.9-13.7-7.2l1.8-1.4c6.5,2,12.1-3.4,16-8l2.2,0.4
            C790.5,745.1,792.4,751.8,789,755z"/>
          <path class="h" d="M803,737c-0.8,2.5-9.1,7.8-11,5c-2.3,1.6-10.2-3.1-9-6c2.3-1.9,3.2-3.4,6.3-5.2
            C799.2,725.3,802.8,724.3,803,737z"/>
          <path class="h" d="M786,746c-4.4,5.7-12.3,12.9-20,9c1.5-4.1,8.6-10.5,12-14C781,737.9,788.1,742.4,786,746z"/>
          <path class="j" d="M783,736c1.8,1.4,8.1,4.3,9,6c3.4-0.2,3.8,6.9,2,9c-1.5,1.1-3.1,2.7-5,4c0.8-6.9-4.5-12.7-11-14
            C780.2,738.6,779.9,738.6,783,736z"/>
          <path class="e" d="M601,674l8,11c-2.5-0.5-11.5-0.7-12.8-2.2c-0.9-1.1-2.9-11.8-2.2-12.8C596.4,670.6,599.1,673.1,601,674z"/>
          <path class="e" d="M895,639c-6-4.1-13-7.2-20-9C880.4,622.5,898.6,629.7,895,639z"/>
          <path class="l" d="M803,737c0.6,8.6-0.9,11.2-9,14c-1.6-2.2-1-7.2-2-9C795.8,740.7,799,737.2,803,737z"/>
          <g>
            <path class="m" d="M504,588c9.4,7.3,14.6,14.9,17,27c-0.7,3.9-6.5,7.6-10.1,9.8c-8.8,5.5-18.1,9.8-28.1,13L479,637
              l-2.3-1.9c-7.1-35.9-33.6-34-23.1-43.3C469.9,586.8,487.6,582.7,504,588z"/>
            <path class="j" d="M391,533c3.3-1.6,11.3-5.6,13.8-1.3l23.9,94.1c-0.7,8.2-6.6,16.7-4.8,26.2c-2.1-4.1-9.6-19.8-12.3-23.2
              c-7.5-31.4-14.9-62.8-22.4-94.1L391,533z"/>
            <path class="h" d="M521,615c6.7,33.6-22.5,52.7-51,61l-0.2-3.4c5.9-9.8,8.1-21.3,7.4-32.6l1.8-3
              C494.3,632.5,508.6,624.9,521,615z"/>
            <path class="e" d="M436,590c4.8-0.9,13.1,0.6,16,4c0.7,3.5,4.1,4,6.5,6c22,18,27.8,52.3,11.5,76c-4.3,1.2-5.8,1.3-10,2
              l0.3-3.2c8.4-9,11.6-21.1,10.9-33.2l1.8-2.6l-2.2-1.7c-2.5-19.8-17.4-37.5-37.8-39.3l-1.9-2C429.7,589.2,431,592.3,436,590z"/>
            <path class="j" d="M422,669c1.8-5.4,2.1-10.4,2.5-16c1.2,8.6,6.9,12.8,14.5,15.8l7,32.3l-14,2l-2-1.2
              c-2.2-10.8-5.1-21.4-8.7-31.9L422,669z"/>
            <path class="e" d="M391,533l24,101c-9.9,0.5-25.7-89.8-28.8-95.8C385,533.6,388.5,534.2,391,533z"/>
            <path class="n" d="M504,588c-4.8,2.7-11.3-1.1-16.5-1c-18.5,0.9-33.7,12.1-51.5,3C457.1,580.4,484,572.3,504,588z"/>
            <path class="h" d="M400,632c3.1,1.3,5.1,5.5,7,8c5.7,7.1-0.1,22-9,21c-8.3-6.2-21.1-18.2-10.9-27.9
              C389.7,630.6,398.8,627.2,400,632z"/>
            <path class="h" d="M473,639c1.4,14.7-2.3,28.7-13,39c-2.6,0.4-5.7,1.9-8.5,2c-2.1-3.3,2.6-4.5,4.3-6.7
              c6.8-8.7,10.1-22.5,11.2-33.3C467.2,637,471.8,636.2,473,639z"/>
            <path class="l" d="M452,632c2.9-2,5,2.4,6,5c-0.5,8.9-7.5,22.5-17.5,22.1c-6.1-0.3-7.2-4.8-7.5-10.1l1.7-1.8
              c8.7,0.9,13.2-7.2,15.1-14.5L452,632z"/>
            <path class="h" d="M451,630c2.5-1.3,3,0.2,1,2c-2.3,9.5-7.8,19.1-19,17c-0.5-9.2,2.5-11.8,6-19
              C440.8,626.6,449.9,626,451,630z"/>
            <path class="k" d="M473,639l-6,1c1.7-17-6.1-28.5-21-35.5c-3.6-1.7-13-3.2-14.1-3.9c-1.5-1.1-0.7-3.2-1-4.5
              C453.2,595.6,471,618.2,473,639z"/>
            <path class="h" d="M395,614c1.3,4.5,2,7.5,3,12l-1.6,1.9c-5.8-0.2-10.9,2.9-13.9,7.8L380,636c-2-10.1-0.8-15.5,6-23
              C388.6,611,394,610.3,395,614z"/>
            <path class="l" d="M388,665c6,6.3,14.1,10.8,22.9,10.1c0.5,0.3,3.8,9.5-0.4,9.9c-4.8,0.4-19.2-4.6-21.5-9
              C384.8,674.4,382.8,664.4,388,665z"/>
            <path class="l" d="M398,661c7.9-4.1,11.3-12.4,9-21C418.8,651.5,419.1,677.2,398,661z"/>
            <path class="j" d="M532,598c8.2,9.5,7.8,24.6,1,35c-1.7,0.3-1-2.4-1-3.5c0.1-9.7,0-19.3-4-28.5
              C526.6,597.4,529.4,594.9,532,598z"/>
            <path class="e" d="M432,703c-0.1,2.3-2.9,3.8-4,3c-0.8-1.8-11.5-35.6-6-37C425.2,677.2,432.5,694.5,432,703z"/>
            <path class="i" d="M436,709c19.2-8.4,7.5,12,9,22c-1.6,2.1-4.7-5.6-5-6C438.1,721.1,432.3,712.6,436,709z"/>
            <path class="e" d="M398,626c0.4,1.7,2.5,3.6,2,6c-4.6-1.9-12.6,1.7-14.5,6c-1,2.4,0.4,5.3-1.5,7c-2.1-3.7-3-4-4-9
              C383.6,629.2,390.1,625.1,398,626z"/>
            <path class="j" d="M387,517c7-4.6,16.8-2.8,16,7c-0.5,0.5-11.6,1-14,2C385.8,526.8,384.8,519.2,387,517z"/>
            <path class="j" d="M384,495c9.1-4.5,9.3,4.5,11,11c-3.3-1.1-13.9,6.7-13,1C381.5,502.5,382.2,498.5,384,495z"/>
            <path class="k" d="M382,660c2.4,1.3,1.6,9,0,11c-6.7-1.9-13.7-22.2-8-26L382,660z"/>
            <path class="e" d="M532,598c-2,0.1-3.2,1.3-4,3c-3.1-7.1-10.4-13.4-14.5-20C522.5,584.2,527.4,590.1,532,598z"/>
            <path class="l" d="M395,691c5.8,2,13.3,2.2,19.4,2C419.7,701.1,384.7,696.2,395,691z"/>
            <path class="e" d="M449,623c1.3-3.3,5.6,0.2,6,3c2.1,2-1.7,5.7-4,4c-3-1.1-8.8-0.4-12,0c0.9-1.9,1.8-4.9,2-7
              C442.1,620,447.9,619.8,449,623z"/>
            <path class="e" d="M388,665c-2.2,1.9-0.1,8.8,1,11c-8-1.1-9.1-9.7-7-16C385.2,660.1,386.2,663.4,388,665z"/>
            <path class="h" d="M449,617c6.7,7-3.4,5.9-8,6c-3.1-0.1-5.3,0.9-3.8-3.3C438.6,615.5,445.5,615.7,449,617z"/>
            <path class="j" d="M440,725c-3.4-4.5-13-12.3-4-16L440,725z"/>
            <path class="e" d="M389,526c-0.7,0.3-2.7,3.9-5,3c-0.7-5.5-2.5-8.4,3-12L389,526z"/>
            <path class="j" d="M456,626c1.5,4.3,2.3,6.1,2,11c-2.3-0.4-5.7-4.4-7-7l4-4C455.3,625.1,455.6,625.1,456,626z"/>
            <path class="k" d="M386,613c2.2-2.4,4.3-5.5,8-6c1.2,2.1,0.5,5.3,1,7L386,613z"/>
            <path class="g" d="M390,689c2.7,1.1,1.8,3.2-1,3c-3.7-2.4-7.2-4.3-9-9C382.2,681.2,389,688.5,390,689z"/>
            <path class="l" d="M456,626c-1.9,0.2-5.6-2.8-7-3v-6C453.8,618.8,454.4,621.6,456,626z"/>
            <path class="e" d="M395,691v4c-4-1.3-2.9-1-6-3l1-3C390.2,689.1,394.5,690.8,395,691z"/>
            <path class="e" d="M382,507c-1.3-4.3-2.6-9.7,2-12C383.6,498.8,383.6,503.7,382,507z"/>
          </g>
          <path class="h" d="M826,593c-1.2-3-3.9-6.3-4-10c24.1,2,32.9-4,48.6-20.9c0.8-0.8,0.9-1.4,2.4-1.1l21,52.5
            c-5.8-1.1-11.2-0.7-17,0.5c-0.2-4.4-12.4-28.3-14.7-28.9C849.4,590.8,840.6,595.9,826,593z"/>
          <g>
            <path class="m" d="M570,521c-7.4,10.9-26.7,7.9-33-3c-4.7-26,23.8-54.4,49-39.5C578.3,491.1,572.9,506.5,570,521z"/>
            <path class="n" d="M558.8,483.2c18.1-2.6,2.9,22.5-9.8,16.3C542.3,496.2,551.8,484.2,558.8,483.2z"/>
          </g>
          <g>
            <path class="m" d="M877,614c-9,1.6-19.3,8.1-24,15.5c-0.5,0.3-10.8,2.6-11.4,2.4c-2-0.6-13.7-34-15.6-38.9l0.9-2.1
              c38.2,6,31-30.8,51.8,21.2L877,614z"/>
            <path class="n" d="M843.1,624.9c-1.9-1.1-10.1-24-8.1-27.9c6.6,4.8,10.5,16.5,12.8,23.7
              C848.2,623.4,845.2,626.1,843.1,624.9z"/>
          </g>
          <g>
            <path class="m" d="M601,501c32.9,27.9,98.6,29.8,138.4,17.9c4.5-1.4,14.5-7.4,18.1-5c5.2,3.4,2.4,7.3,2.4,11.5
              c-6.3,39,24.9,110.4-17.4,134.6c-40.8,16.5-129.1,10.6-161.5-22c0.9-37.4-0.9-77,8.3-114.2c0.8-3.8,3.5-17.9,4.9-20.1
              C595.6,501.3,598.7,501.8,601,501z"/>
          </g>
          <g>
            <path class="h" d="M791,544c34.5,30.8,81.8-9.3,61-49C911.2,541.7,819.5,614.8,791,544z"/>
            <path class="j" d="M802,575c0.3,1.3-1.9,1.6-2.8,1.7c-13.5,1.8-19.5-20.3-19.2-30.8C784.8,555.6,791.2,570.8,802,575z"/>
            <g>
              <path class="m" d="M852,495c28.1,37-30.6,86.4-61,49C780.1,505.8,818.8,472,852,495z"/>
              <path class="n" d="M821.8,498.2c12.7-1.5,13.6,15.9,1,20C803.2,524.7,807.1,499.9,821.8,498.2z"/>
            </g>
          </g>
          <g>
            <path class="m" d="M892,650l1.3,2.1c-5.2,14.3-10.5,28.7-15.9,42.9c-2.3,1.1-17.1,5.7-19.4,7.1l-3,0.4
              c-13.9-8.9-32.1-11.2-47.1-3.7L805,698C817.5,658.5,849.7,618.1,892,650z"/>
            <path class="e" d="M858,702c-0.2,0.2-2.5,2.7-4,4c-16.1-9.1-35.5-11.7-51,0c0.7-3,0.9-4.8,2-8
              C820.7,688.4,843.6,691.3,858,702z"/>
            <path class="n" d="M847,646l-24.1,40.4l-3.4,1.6C812.6,682.1,837.2,641.3,847,646z"/>
          </g>
        </g>
        <g>
          <path class="h" d="M772,124c47.5,19.4,79.4,62.7,91,112c-62.5-14-67.2,142.5-10,144.5c-20.5,47.3-70.3,74.9-119,84.5
            c-5.4-3.1-9.1-13.2-7-19c100.7-23.7,64-115.3,80.5-188c19.1-43.7-22.3-101.5-57.5-126C753.6,126.1,765.2,122.5,772,124z"/>
          <path class="h" d="M721,449l2.4,1.5l5.6,13.8l-1,2.7c-25.2,8.2-169.2,17.6-166-21l6.3-0.1C619.7,463.8,669.2,452.4,721,449z"/>
          <path class="o" d="M884,345c-9.1,16.7-21.3,11.9-27.4-3.5c-6.3-16-6.8-35.7-3.2-52.6c7.9-38.9,33.7-32.5,35.6,3.1l1,1
            C892.5,311.8,889.8,327.4,884,345z"/>
          <path class="n" d="M566,137l1,3.2l-6.4,17.7C487.7,205.7,477.3,305,493,383C462.8,292.3,480.9,189.2,566,137z"/>
          <path class="n" d="M669,106c17-0.3,34.4,2.5,50.2,9l1.8,3c2.3,1.3-1.8,5.6-2.9,5.7c-52.4-4.2-101.5,3.6-148.1,29.1
            c-1.3,0-4.2,0.7-4.9-1c-1.7-2,7.4-19.6,11.9-20.9C598.3,119.8,645.2,102.2,669,106z"/>
          <path class="m" d="M855,270l0.8,2.9c-6.6,15.6-8,33-7,49.7L847,325c-1.3,5.4-16.1,2.3-20.7,1c-5.7-23.1-1.6-51,11.7-71
            c2.9-0.9,3.5,1.1,2,6.2c2.8,3.5,7.6,5.6,14.4,6.2L855,270z"/>
          <path class="h" d="M847,325l2.1,0.8c2.3,11.1,5.9,23.9,15,31.3c4.4,0.8,7,2.5,7.9,4.9c-32.7,24.9-44.2-11.4-47-38
            C832.6,323.8,839.4,328.1,847,325z"/>
          <path class="j" d="M877,258c5.3,2.3,10.2,18.3,11,24c-2.8,0.6-1.9-1.4-2.5-3c-8-21.1-19.7-19.4-27.3,0.7
            c-8.1,13.9-8.1,84.1,18.6,71.6c2.9-2,4-5.7,7.1-6.4c-2.1,7.1-6.1,12.5-12,17c-33.3-9.1-28.6-67.2-17-92c-2.3-2.5,2.1-8.2,5-7
            C857.6,257.8,874.4,251.9,877,258z"/>
          <path class="h" d="M762,120c-4.5,0.5-15.8,6.4-20,9c-6.4-2.4-12.8-5-19.2-8l-1.8-3c-14.7-7.4-35.1-9.3-52-12
            C698.6,102.8,734.6,108,762,120z"/>
          <path class="h" d="M496,392c2.5-0.6,2,1.3,2.8,2.6c13,22.4,27.4,34.3,50.5,45.5c0.8,0.4,3.3,2.6,3.6,0.9
            c0.8-0.2,1.9-0.4,2.2,0c0.9,2.7,8,15.5,4.8,17C528.8,444.9,508.4,423.3,496,392z"/>
          <path class="k" d="M877,258c-12.3-5.6-20.8,15.3-21.5,0.7c-3-3.7-7.4-5.9-13-6.5L842,250C850.1,239,872,247.2,877,258z"/>
          <path class="n" d="M842,250c5.2,1.7,12,2.1,15.1,7.4c1.5,2.6-0.3,6.1,2.9,5.6c-0.8,0.9-4.4,5.9-5,7
            c-4.8-3.1-16.4-1.6-17-8.6c-0.2-2.2,1.9-4.9,0-6.4C839.8,252.5,839.3,252.5,842,250z"/>
          <path class="h" d="M471,338c1.2,9.3,5,20.4,6.6,29.9c1,6.1-5.5-3.1-6.4-4.6c-5.6-8.9-8.4-20.1-10.2-30.3L471,338z"/>
          <path class="e" d="M725,429c0,12.5,3.2,25,9,36c-1.3,0.3-3.1,1.4-6,2c-2.5-5.6-5.7-12-7-18c-4.1-3.3-4.7-14.7-2-19
            C719,426.9,723.8,426.2,725,429z"/>
          <path class="m" d="M470,314c-3,0.6-1.9-1.5-2-3.5c-0.1-2.5,0.1-5.1,0-7.6l-7,0c-1.3-10,2.2-22.9,10-30
            C469.4,286.6,469.6,300.3,470,314z"/>
          <path class="e" d="M558,430c2.9,2.8,5.8,12.6,4,16c1.8,5.1,4.3,9.9,6,15c-2.9-1-5.1-1.8-8-3l-7-17l-2-13
            C552.1,425.1,558,427.1,558,430z"/>
          <path class="j" d="M884,344c0.4-1.8-0.1-3.8,2-5C885.5,340.7,886.1,342.9,884,344z"/>
          <path class="j" d="M889,289c-1.5-0.7-0.9-2.7-1-4C890.2,286.2,888.9,288.5,889,289z"/>
          <path class="j" d="M890,293l-1-1C889,292.1,889.9,292.2,890,293z"/>
          <path class="m" d="M719,430c0.7,6.1,0.7,13.1,2,19c-52.2,11.5-107.7,13.6-159-3c-1.8-5.1-4.2-10.4-4-16
            C602.1,443.4,674.7,442.1,719,430z"/>
          <path class="m" d="M721,118c3.1,2.4,22.4,7.7,21,11c-35.4,20.2-38.6,60.6-62.7,71.8c-19.6,7.8-70.2,7.6-91.7,5.2
            c-32.8,0.4-27.8-30.7-20.5-53c45.3-27.3,98.3-35.5,150.5-31L721,118z"/>
          <g>
            <path class="k" d="M461,303c-0.1-3.1,7.1-2.4,7.9-0.7c-0.5,5.6-0.2,9.5,1.1,11.7c0.2,7.3,0.1,16.9,1,24
              c-2.7,2.7-8.8-1.7-10-5c-0.9-5-1.9-11-2-16C461.5,313.5,459.4,307.4,461,303z"/>
            <path class="m" d="M460,309c1.6,1.9,2.2,9.2-1,8C459,313.7,459.8,311.6,460,309z"/>
            <path class="m" d="M468.5,316c0.6,0.3,0.6,0.7,0,1V316z"/>
          </g>
          <g>
            <path class="m" d="M727,446c-5.4-4.6-5.2-15.6,0.4-19.9c51.9-16.4,55.5-68.7,45.8-114.4c-16-97.4-136.4-48.6-205.2-57.3
              c-42.3,0.1-68.4,11.9-71.1,57.9c-2.5,43.2,7.5,94.3,51.6,112.6c0,0,2.5,3.1,2.5,3.1c3.3,1.7,5,10.9,2,13
              c2.7,8.7-24.5-10.9-27.3-12.4C453.8,372.4,479.6,200.1,558,160l1.5,2.4c-18.4,62.5,53.4,49.4,92.3,48.3
              c59.2-1.9,43.3-41.1,87.4-74.5c19.3-17.9,44.8,27.5,55.5,40.4c12.8,20.9,27.9,55.2,15.8,78.5
              c-18.4,73.9,19.9,166.9-80.5,192.3L727,446z"/>
            <path class="e" d="M772,124c-63.2,15.1-55.2,64.2-89.7,82.8c-20.7,8.7-77.8,8.4-100.7,5.1c-39.5-5.4-26-49-15.6-74.9
              c4.3-2.6,6.9-3.8,11-6c-4,6.7-9.5,14-10,22l1.2,3.1c-4.1,14.3-10.9,40.7,8.1,46.1c20.8,5.8,62.2,3.9,83.9,1
              c13.6-1.8,25.9-4.7,33.3-17.3c6.9-13.4,34.5-59.4,48.6-56.8l0.1-2.4C750.9,119.8,763.1,116.7,772,124z"/>
            <path class="n" d="M534.7,189.2c20.3-4.5-1.2,39.5-14.8,27.3C513.8,208.3,526.4,190.9,534.7,189.2z"/>
          </g>
          <g>
            <path class="a" d="M725,429c-1.2,0.4-3.6,0.4-6,1c-21.5,15.1-139.8,16.1-161,0c-43.4-11-60.7-51.8-63-93.5
              C488.8,239,546.5,254,618.5,252c37.9-1,100.2-12.1,131.8,11.1C792.2,304.8,795.2,412.8,725,429z"/>
            <path class="i" d="M672.8,257.3c61.5-1.9,90.1,5.7,97.1,72.3c4.5,43.2-1.4,75.6-46.1,90.7c-44.7,15.1-159,18.6-195.3-15.3
              c-26.9-25.1-39.7-114.1-4.8-135.8C563.2,251.2,629.1,264.5,672.8,257.3z"/>
            <g>
              <path class="p" d="M694.7,320.2c22,1.5,26.7,35.7,17.1,51.1C681.8,406.4,660.9,322.3,694.7,320.2z"/>
              <path class="p" d="M551.8,323.2c20.6-3,32.8,49.5,9.7,56.7C534.6,384.3,528.4,326.4,551.8,323.2z"/>
              <path class="p" d="M651.3,382.3c3.3-3.2,9-0.5,7.3,5.8c-6,21.8-41.4,24.3-56.6,9.5c-2.3-2.2-8.9-10.4-5-13.1
                c4.5-3.2,11.6,7.5,16.2,9.9C626.3,401.8,646,396.8,651.3,382.3z"/>
              <path class="l" d="M542.8,272.3c6.9-0.9,14,1.2,9.3,9.3c-4.2,2.7-30,24.7-32.2,11C519.5,283.7,534.7,273.4,542.8,272.3z"/>
              <path class="l" d="M517.6,299.1c3.4-0.6,6.4,8.5,0.8,9C512.3,308.7,513.4,299.8,517.6,299.1z"/>
            </g>
          </g>
        </g>
      </g>
    </g>
  </g>
</g>
<g>
  <path class="o" d="M668.4,539.9c28.9,0,55.2,25.1,54.4,56.1c-0.7,26.6-22.7,54-52.8,54c-30,0-56-23-56-54
    S641.5,539.9,668.4,539.9z"/>
  <path class="q" d="M633.9,567.9h43.2v8.5h-17V624h-9.3v-47.6H634L633.9,567.9L633.9,567.9z"/>
  <polygon class="r" points="702.9,571.9 702.9,567.9 696.1,567.9 692.3,567.9 685.5,567.9 685.5,571.9 692.3,571.9 692.3,620.1
    685.5,620.1 685.5,624 692.3,624 696.1,624 702.9,624 702.9,620.1 696.1,620.1 696.1,571.9"/>
</g>
</svg>
