<svg xmlns="http://www.w3.org/2000/svg" viewBox="0 0 628.2 200">
  <path fill="#DF7900" d="M150 200H50c-27.5 0-50-22.5-50-50V50C0 22.5 22.5 0 50 0h100c27.5 0 50 22.5 50 50v100c0 27.5-22.5 50-50 50z"/>
  <path fill="#fff" d="M41.9 61.2V50h80v11.2H88.5V150H75.2V61.2z"/>
  <polygon fill="#FFC266" points="158.1 53 158.1 50 148.1 50 145.1 50 135.1 50 135.1 53 145.1 53 145.1 147 135.1 147 135.1 150 145.1 150 148.1 150 158.1 150 158.1 147 148.1 147 148.1 53"/>
  <g fill="#DF7900">
    <path d="M241.9 61.3V50.1h80v11.2h-33.3v88.8h-13.3V61.3z"/>
    <path d="M343.9 159.8c-1.4 3.5-2.8 6.5-4.1 9-1.4 2.4-2.9 4.4-4.5 6-1.6 1.5-3.5 2.7-5.5 3.4-2 .7-4.3 1.1-6.9 1.1-1.4 0-2.8-.1-4.2-.3-1.4-.2-2.8-.5-4.1-1V167c1 .5 2.2.9 3.6 1.2 1.4.3 2.5.5 3.4.5 2.4 0 4.5-.6 6.1-1.8 1.6-1.2 2.9-2.8 3.7-5l4.9-12.2-28.7-72h13.5l21.2 59.3h.3l20.3-59.3h12.6z"/>
    <path d="M397.8 77.7v9.8h.3c2-4 5-6.9 9.2-8.8 4.2-1.8 8.8-2.7 13.9-2.7 5.6 0 10.5 1 14.6 3.1 4.2 2.1 7.6 4.8 10.4 8.3 2.8 3.5 4.8 7.5 6.2 12.1 1.4 4.6 2.1 9.4 2.1 14.6 0 5.1-.7 10-2 14.6-1.4 4.6-3.4 8.6-6.2 12-2.8 3.4-6.2 6.1-10.4 8.1-4.2 2-9 2.9-14.5 2.9-1.8 0-3.8-.2-6-.6-2.2-.4-4.4-1-6.5-1.8-2.1-.8-4.2-2-6.1-3.4-1.9-1.4-3.5-3.2-4.8-5.4h-.3v37.3h-11.9v-100h11.9zm42.8 25.7c-.9-3.2-2.2-6.1-4.1-8.6-1.8-2.5-4.2-4.5-7-6-2.9-1.5-6.2-2.2-10-2.2-4 0-7.4.8-10.2 2.4-2.8 1.6-5.1 3.7-6.9 6.2-1.8 2.6-3.1 5.5-3.9 8.8-.8 3.3-1.2 6.6-1.2 9.9 0 3.6.4 7 1.3 10.3.8 3.3 2.2 6.2 4 8.8 1.8 2.5 4.2 4.6 7.1 6.1 2.9 1.5 6.4 2.3 10.5 2.3 4.1 0 7.5-.8 10.3-2.4 2.8-1.6 5-3.7 6.7-6.3 1.7-2.6 2.9-5.6 3.6-9 .7-3.4 1.1-6.8 1.1-10.4 0-3.4-.5-6.7-1.3-9.9z"/>
    <path d="M532.8 149.9c-2.1 1.2-4.9 1.8-8.5 1.8-3.1 0-5.5-.9-7.4-2.6-1.8-1.7-2.7-4.6-2.7-8.5-3.3 3.9-7.1 6.7-11.4 8.5-4.3 1.7-9 2.6-14.1 2.6-3.3 0-6.4-.4-9.3-1.1-2.9-.7-5.5-1.9-7.6-3.5-2.1-1.6-3.9-3.7-5.1-6.2-1.3-2.6-1.9-5.7-1.9-9.3 0-4.1.7-7.5 2.1-10.1 1.4-2.6 3.2-4.7 5.5-6.4 2.3-1.6 4.9-2.9 7.8-3.7s6-1.5 9-2.1c3.3-.7 6.4-1.1 9.3-1.5 2.9-.3 5.5-.8 7.8-1.4 2.2-.6 4-1.5 5.3-2.7 1.3-1.2 2-2.9 2-5.1 0-2.6-.5-4.7-1.5-6.3-1-1.6-2.2-2.8-3.8-3.6-1.5-.8-3.3-1.4-5.2-1.7-1.9-.3-3.8-.4-5.7-.4-5 0-9.2 1-12.6 2.9-3.4 1.9-5.2 5.5-5.5 10.9h-11.9c.2-4.5 1.1-8.3 2.8-11.3 1.7-3.1 3.9-5.6 6.7-7.5 2.8-1.9 6-3.3 9.6-4.1 3.6-.8 7.4-1.3 11.6-1.3 3.3 0 6.5.2 9.7.7 3.2.5 6.1 1.4 8.8 2.9 2.6 1.4 4.7 3.5 6.3 6.1 1.6 2.6 2.4 6 2.4 10.2v37.2c0 2.8.2 4.8.5 6.2.3 1.3 1.4 2 3.3 2 1 0 2.2-.2 3.6-.6v9.5zm-19.4-37.2c-1.5 1.1-3.5 1.9-5.9 2.4-2.4.5-5 .9-7.6 1.3-2.7.3-5.3.7-8.1 1.1-2.7.4-5.1 1.1-7.3 2-2.2.9-3.9 2.3-5.3 4-1.4 1.7-2 4.1-2 7 0 2 .4 3.6 1.2 5 .8 1.3 1.8 2.4 3.1 3.3 1.3.8 2.7 1.4 4.4 1.8 1.7.4 3.5.6 5.3.6 3.9 0 7.3-.5 10.1-1.6 2.8-1.1 5.1-2.4 6.9-4 1.8-1.6 3.1-3.4 3.9-5.3.8-1.9 1.3-3.7 1.3-5.4v-12.2z"/>
    <path d="M554.6 77.7V93h.3c2.9-5.9 6.4-10.2 10.6-13 4.2-2.8 9.5-4.1 16-3.9v12.6c-4.8 0-8.8.7-12.2 2-3.4 1.3-6.1 3.2-8.1 5.7-2.1 2.5-3.6 5.6-4.5 9.2-.9 3.6-1.4 7.7-1.4 12.4v32.2h-11.9V77.7z"/>
    <path d="M601.3 77.7V93h.3c2.9-5.9 6.4-10.2 10.6-13 4.2-2.8 9.5-4.1 16-3.9v12.6c-4.8 0-8.8.7-12.2 2-3.4 1.3-6.1 3.2-8.1 5.7-2.1 2.5-3.6 5.6-4.5 9.2-.9 3.6-1.4 7.7-1.4 12.4v32.2h-11.9V77.7z"/>
  </g>
</svg>
